<svg width="20" height="20" viewBox="0 0 20 20" fill="none" xmlns="http://www.w3.org/2000/svg">
<g clip-path="url(#clip0_5713_23660)">
<path d="M18.45 18.2269H2.4579C2.22393 18.2236 1.99967 18.1328 1.82933 17.9724C1.659 17.812 1.55495 17.5935 1.5377 17.3602C1.52046 17.1268 1.59126 16.8955 1.73616 16.7118C1.88106 16.528 2.08953 16.4053 2.32048 16.3676C2.32012 16.3659 2.32074 10.6147 2.32048 10.6122C2.32407 10.3812 2.41321 10.1598 2.57065 9.99073C2.7281 9.82167 2.94266 9.71702 3.17281 9.69704C3.40296 9.67705 3.63235 9.74314 3.81658 9.88253C4.00081 10.0219 4.12679 10.2247 4.17015 10.4516H5.54986V2.51889C5.54933 2.30959 5.63185 2.10863 5.7793 1.96009C5.92676 1.81155 6.12711 1.72757 6.33641 1.72656H14.5715C14.7808 1.72756 14.9812 1.81153 15.1287 1.96006C15.2762 2.1086 15.3588 2.30957 15.3583 2.5189V5.621C15.6902 5.4603 16.4647 5.29876 16.6433 5.73576C16.6957 5.94439 16.7032 6.16177 16.6654 6.37352C16.6275 6.58528 16.5451 6.78658 16.4236 6.96412C16.3022 7.14165 16.1444 7.29138 15.9608 7.4034C15.7771 7.51541 15.5718 7.58716 15.3583 7.6139V8.0824H15.9672C16.0544 8.08308 16.1405 8.10177 16.2202 8.13729C16.2998 8.17281 16.3713 8.2244 16.4301 8.28883C16.4889 8.35325 16.5337 8.42912 16.5618 8.51169C16.5899 8.59425 16.6007 8.68173 16.5934 8.76864L16.4461 10.4516H16.7383C16.7812 10.2243 16.907 10.0211 17.0912 9.88129C17.2755 9.74151 17.5052 9.6752 17.7356 9.69521C17.966 9.71523 18.1808 9.82014 18.3382 9.9896C18.4956 10.159 18.5844 10.3809 18.5874 10.6122V16.3676C18.8184 16.4053 19.0268 16.5281 19.1717 16.7118C19.3166 16.8955 19.3874 17.1269 19.3701 17.3602C19.3529 17.5935 19.2489 17.812 19.0785 17.9724C18.9082 18.1328 18.684 18.2236 18.45 18.2269ZM2.4579 16.9513C2.36878 16.9532 2.28397 16.99 2.22164 17.0537C2.15932 17.1175 2.12442 17.2031 2.12442 17.2922C2.12442 17.3813 2.15933 17.4669 2.22167 17.5307C2.284 17.5944 2.36881 17.6312 2.45793 17.6331H18.45C18.5392 17.6313 18.6241 17.5945 18.6865 17.5308C18.7489 17.4671 18.7839 17.3814 18.7839 17.2922C18.7839 17.203 18.7489 17.1173 18.6865 17.0536C18.6241 16.9898 18.5392 16.9531 18.45 16.9512L2.4579 16.9513ZM17.3176 16.3575H17.9937V10.6174C17.9957 10.5729 17.9883 10.5284 17.972 10.4869C17.9557 10.4454 17.9309 10.4078 17.8991 10.3765C17.8673 10.3452 17.8294 10.3209 17.7876 10.3053C17.7459 10.2896 17.7013 10.2828 17.6568 10.2855C17.612 10.2829 17.5671 10.2897 17.5251 10.3056C17.4831 10.3214 17.4448 10.3459 17.4129 10.3774C17.3809 10.4089 17.3559 10.4468 17.3395 10.4886C17.3231 10.5304 17.3156 10.5752 17.3176 10.62V16.3575ZM4.18436 16.3575H16.7238V11.0454H4.18436V16.3575ZM2.91423 16.3575H3.59061V10.6174C3.59243 10.5728 3.58486 10.5282 3.56839 10.4866C3.55191 10.4451 3.52689 10.4074 3.49494 10.3761C3.463 10.3448 3.42484 10.3206 3.38294 10.305C3.34104 10.2894 3.29632 10.2827 3.25169 10.2855C3.20694 10.283 3.16217 10.2899 3.12027 10.3058C3.07837 10.3217 3.04028 10.3463 3.00847 10.3779C2.97666 10.4094 2.95183 10.4473 2.93559 10.4891C2.91936 10.5309 2.91208 10.5756 2.91423 10.6204V16.3575ZM14.2804 10.4145L15.8187 10.4516L16.002 8.7179L15.9672 8.67615C15.9613 8.67846 14.1602 8.67173 14.1558 8.67847L14.2624 10.3075C14.2682 10.3484 14.2746 10.3846 14.2804 10.4145ZM10.751 10.4516H13.6768C13.639 10.0937 13.6082 9.81797 13.5667 9.23888C13.5375 8.91848 13.437 8.4519 13.751 8.232V8.14328H10.751V10.4516ZM7.15717 10.4516H10.1572V8.14328H7.15717V10.4516ZM6.14363 10.4516H6.56342C6.56333 8.81752 6.56346 4.71899 6.56342 3.03697C6.56339 2.99798 6.57106 2.95937 6.58597 2.92334C6.60088 2.88731 6.62275 2.85457 6.65032 2.827C6.67789 2.79943 6.71063 2.77756 6.74666 2.76265C6.78268 2.74774 6.8213 2.74008 6.86029 2.7401H14.0479C14.0869 2.74008 14.1255 2.74774 14.1615 2.76265C14.1976 2.77756 14.2303 2.79943 14.2579 2.827C14.2855 2.85457 14.3073 2.88731 14.3222 2.92334C14.3371 2.95937 14.3448 2.99798 14.3448 3.03697V5.48474C14.4903 5.51437 14.6314 5.5627 14.7646 5.62854V2.51889C14.7646 2.46715 14.7445 2.41742 14.7084 2.38032C14.6723 2.34322 14.6232 2.32168 14.5715 2.3203H6.33641C6.28474 2.32179 6.2357 2.34338 6.1997 2.38046C6.16369 2.41754 6.14357 2.46721 6.14361 2.51889L6.14363 10.4516ZM14.3448 7.87279V8.08238H14.7646V7.62055C14.6193 7.60407 14.4776 7.56453 14.3448 7.50342C14.3439 7.54195 14.3462 7.84199 14.3448 7.87279ZM10.751 7.54953H13.751V7.03609C13.6021 6.85095 13.5009 6.63209 13.4563 6.3987C13.4117 6.16532 13.4251 5.92456 13.4953 5.69756L13.4959 5.69524C13.4959 5.69524 13.4982 5.69814 13.4965 5.69408L13.4977 5.6906L13.4983 5.68942L13.4995 5.68739L13.5001 5.6862V5.68509L13.5007 5.68394C13.5007 5.68394 13.5007 5.68712 13.5013 5.68275L13.5019 5.68188L13.5025 5.68069L13.503 5.67923V5.67841L13.5036 5.67812V5.67725L13.5042 5.67609L13.5048 5.6749L13.506 5.67287L13.5066 5.67172L13.5072 5.67053V5.66971C13.5174 5.64915 13.5298 5.6298 13.5443 5.61202L13.5449 5.61115L13.5455 5.61055L13.5467 5.60883L13.5473 5.60854L13.5479 5.60795L13.5485 5.60679L13.5491 5.6062L13.5497 5.60533L13.5508 5.60446L13.5514 5.6033L13.552 5.6027L13.5526 5.60241L13.5532 5.60155L13.5544 5.60036C13.5677 5.58554 13.5824 5.57214 13.5984 5.56035L13.5996 5.55949L13.6002 5.55889L13.6014 5.5583L13.6026 5.5575L13.6032 5.55691C13.6032 5.55691 13.6003 5.56068 13.6044 5.55632L13.605 5.55578L13.6056 5.55548L13.6062 5.55519L13.6068 5.5546L13.6074 5.55401L13.6114 5.55168L13.612 5.55109L13.6132 5.5505L13.6144 5.54967L13.6341 5.53807L13.6347 5.53748H13.6353C13.6353 5.53718 13.6306 5.53863 13.6365 5.53688L13.6371 5.53659L13.6377 5.53606L13.6382 5.53577L13.6388 5.53548L13.64 5.53489L13.6406 5.5346L13.6418 5.534L13.643 5.53341L13.6442 5.53281L13.6453 5.53253C13.6796 5.51732 13.7154 5.50575 13.752 5.49803V3.33384H10.751V7.54953ZM7.15717 7.54953H10.1572V3.33384H7.15717V7.54953ZM14.8608 7.03291C14.9078 7.03634 14.9551 7.03479 15.0017 7.02827C15.0058 6.89972 14.9834 6.77171 14.9358 6.65221C14.8883 6.53271 14.8166 6.42428 14.7253 6.33366C14.6341 6.24305 14.5251 6.17219 14.4053 6.1255C14.2855 6.07881 14.1573 6.05728 14.0288 6.06227C14.0223 6.29847 14.1038 6.52866 14.2576 6.70806C14.4114 6.88746 14.6264 7.00325 14.8608 7.03291ZM15.5021 6.4554C15.5615 6.60656 15.5952 6.76657 15.6019 6.92883C15.7594 6.84695 15.8896 6.721 15.9767 6.56635C16.0638 6.4117 16.104 6.23503 16.0924 6.05792C15.9721 6.04992 15.8513 6.06597 15.7372 6.10515C15.6231 6.14432 15.518 6.20583 15.4279 6.28608C15.4559 6.34103 15.4807 6.39756 15.5021 6.4554ZM15.2934 15.7C14.9594 15.7073 14.6026 15.5743 14.5935 15.1384V12.2674C14.5916 12.1942 14.6048 12.1214 14.6322 12.0535C14.6596 11.9856 14.7007 11.9241 14.753 11.8728C14.8475 11.8016 14.9553 11.7501 15.07 11.7214C15.1847 11.6926 15.3041 11.6872 15.421 11.7055C15.5039 11.6914 15.5889 11.6952 15.6702 11.7167C15.7516 11.7382 15.8274 11.7769 15.8925 11.8301C15.9577 11.8833 16.0107 11.9499 16.048 12.0253C16.0852 12.1007 16.1059 12.1833 16.1086 12.2674V15.1355C16.1068 15.5862 15.6825 15.7417 15.2934 15.7ZM15.1873 15.1007C15.2906 15.1137 15.4143 15.0992 15.5149 15.1016V12.2674C15.4794 12.338 15.2715 12.2758 15.1879 12.3021L15.1873 15.1007ZM10.3961 15.7C10.0618 15.7073 9.70592 15.574 9.69655 15.1384V12.2674C9.69462 12.1942 9.70775 12.1214 9.73513 12.0535C9.76251 11.9857 9.80356 11.9241 9.85572 11.8728C9.9499 11.8011 10.0577 11.7493 10.1725 11.7205C10.2873 11.6917 10.4068 11.6866 10.5237 11.7055C10.6067 11.6914 10.6917 11.6952 10.7731 11.7167C10.8544 11.7382 10.9303 11.7768 10.9955 11.8301C11.0607 11.8833 11.1137 11.9499 11.1511 12.0253C11.1884 12.1007 11.2092 12.1833 11.2119 12.2674V15.1355C11.2102 15.5863 10.785 15.7417 10.3961 15.7ZM10.2903 15.1007C10.3994 15.107 10.5088 15.1073 10.6179 15.1016V12.2674C10.5839 12.3384 10.3732 12.2753 10.2909 12.3021L10.2903 15.1007ZM7.94748 15.7C7.6132 15.7073 7.25728 15.574 7.24791 15.1384V12.2674C7.24601 12.1942 7.25915 12.1214 7.28653 12.0535C7.31391 11.9857 7.35494 11.9241 7.40707 11.8728C7.50141 11.8014 7.6092 11.7497 7.72398 11.721C7.83877 11.6922 7.95817 11.687 8.07504 11.7055C8.158 11.6914 8.24302 11.6952 8.32438 11.7167C8.40574 11.7382 8.48156 11.7768 8.54673 11.8301C8.61191 11.8833 8.66493 11.9499 8.70224 12.0253C8.73954 12.1007 8.76026 12.1833 8.763 12.2674V15.1355C8.76124 15.5864 8.33648 15.7417 7.94748 15.7ZM7.84166 15.1007C7.95076 15.107 8.06013 15.1072 8.16927 15.1016V12.2674C8.13672 12.3387 7.92098 12.2752 7.84224 12.3021L7.84166 15.1007ZM12.8448 15.7C12.5109 15.7073 12.1547 15.5743 12.1449 15.139V12.2674C12.143 12.1942 12.1561 12.1214 12.1836 12.0535C12.211 11.9856 12.2521 11.9241 12.3043 11.8728C12.3985 11.8011 12.5063 11.7493 12.6211 11.7205C12.736 11.6918 12.8555 11.6866 12.9723 11.7055C13.0553 11.6914 13.1403 11.6952 13.2216 11.7166C13.303 11.7381 13.3788 11.7768 13.4439 11.83C13.5091 11.8833 13.5621 11.9498 13.5994 12.0253C13.6366 12.1007 13.6573 12.1833 13.66 12.2674V15.1355C13.6585 15.5865 13.2334 15.742 12.8448 15.7ZM12.7386 15.1007C12.8478 15.1069 12.9571 15.1072 13.0662 15.1016V12.2674C13.0353 12.3381 12.8174 12.2757 12.7392 12.3021L12.7386 15.1007ZM5.49913 15.7C5.16466 15.7074 4.80919 15.574 4.79927 15.1387V12.2674C4.79737 12.1942 4.81052 12.1214 4.8379 12.0535C4.86528 11.9857 4.90631 11.9241 4.95844 11.8728C5.05267 11.8012 5.16046 11.7494 5.27527 11.7206C5.39009 11.6919 5.50954 11.6867 5.62641 11.7055C5.70937 11.6913 5.79441 11.6951 5.87578 11.7166C5.95716 11.7381 6.033 11.7767 6.09818 11.83C6.16336 11.8832 6.21639 11.9498 6.25368 12.0252C6.29097 12.1007 6.31167 12.1833 6.31437 12.2674V15.1355C6.31269 15.5864 5.88808 15.7417 5.49913 15.7ZM5.39302 15.1007C5.49489 15.1142 5.62274 15.099 5.72062 15.1016V12.2674C5.69082 12.3377 5.47382 12.2758 5.3936 12.3021L5.39302 15.1007Z" fill="#FF5B2D"/>
</g>
<defs>
<clipPath id="clip0_5713_23660">
<rect width="19" height="19" fill="white" transform="translate(0.953125 0.476562)"/>
</clipPath>
</defs>
</svg>
