<svg width="20" height="20" viewBox="0 0 20 20" fill="none" xmlns="http://www.w3.org/2000/svg">
<mask id="mask0_5713_7296" style="mask-type:luminance" maskUnits="userSpaceOnUse" x="0" y="0" width="20" height="20">
<path d="M0.953125 0.476562H19.9531V19.4766H0.953125V0.476562Z" fill="white"/>
</mask>
<g mask="url(#mask0_5713_7296)">
<path d="M17.253 15.8882V16.9414C17.253 17.2489 17.0037 17.498 16.6963 17.498H4.20898C3.90157 17.498 3.65234 17.2489 3.65234 16.9414V15.8882" stroke="#FF5B2D" stroke-width="0.75" stroke-miterlimit="10" stroke-linecap="round" stroke-linejoin="round"/>
<path d="M14.0947 11.8828H12.8203V7.30834C12.8203 7.00093 13.0695 6.7517 13.377 6.7517H16.2583C16.5658 6.7517 16.815 7.00093 16.815 7.30834V11.8828H13.9532" stroke="#FF5B2D" stroke-width="0.75" stroke-miterlimit="10" stroke-linecap="round" stroke-linejoin="round"/>
<path d="M3.94531 7.5V4.93678C3.94531 4.34719 4.42324 3.86922 5.01284 3.86922C5.60239 3.86922 6.0804 4.34719 6.0804 4.93678V5.21228" stroke="#FF5B2D" stroke-width="0.75" stroke-miterlimit="10" stroke-linecap="round" stroke-linejoin="round"/>
<path d="M6.18325 7.50051H2.0549C1.61037 7.50051 1.25 7.86088 1.25 8.30541C1.25 8.74998 1.61037 9.11035 2.0549 9.11035H12.8202V7.50051H6.18325Z" stroke="#FF5B2D" stroke-width="0.75" stroke-miterlimit="10" stroke-linecap="round" stroke-linejoin="round"/>
<path d="M18.8528 7.50051H16.8164V9.11035H18.8528C19.2974 9.11035 19.6577 8.74998 19.6577 8.30541C19.6577 7.86088 19.2974 7.50051 18.8528 7.50051Z" stroke="#FF5B2D" stroke-width="0.75" stroke-miterlimit="10" stroke-linecap="round" stroke-linejoin="round"/>
<path d="M9.83203 15.8877H17.3616C17.9765 15.8877 18.4749 15.3892 18.4749 14.7744V9.10974H16.8145" stroke="#FF5B2D" stroke-width="0.75" stroke-miterlimit="10" stroke-linecap="round" stroke-linejoin="round"/>
<path d="M12.819 9.10974H2.42969V14.7744C2.42969 15.3892 2.9281 15.8877 3.54297 15.8877H9.9519" stroke="#FF5B2D" stroke-width="0.75" stroke-miterlimit="10" stroke-linecap="round" stroke-linejoin="round"/>
<path d="M8.54864 2.90863C8.54864 2.90863 8.0274 3.18661 8.22401 3.68184C8.33285 3.95593 8.82462 4.15643 8.82462 4.61421C8.82462 5.07199 8.38688 5.27539 8.38688 5.27539" stroke="#FF5B2D" stroke-width="0.75" stroke-miterlimit="10" stroke-linecap="round" stroke-linejoin="round"/>
<path d="M13.3416 2.90863C13.3416 2.90863 12.8204 3.18661 13.017 3.68184C13.1258 3.95593 13.6176 4.15643 13.6176 4.61421C13.6176 5.07199 13.1799 5.27539 13.1799 5.27539" stroke="#FF5B2D" stroke-width="0.75" stroke-miterlimit="10" stroke-linecap="round" stroke-linejoin="round"/>
<path d="M10.947 2.4555C10.947 2.4555 10.4258 2.73349 10.6224 3.22871C10.7313 3.5028 11.223 3.70331 11.223 4.16109C11.223 4.61887 10.7853 4.82227 10.7853 4.82227" stroke="#FF5B2D" stroke-width="0.75" stroke-miterlimit="10" stroke-linecap="round" stroke-linejoin="round"/>
</g>
</svg>
