<svg width="20" height="17" viewBox="0 0 20 17" fill="none" xmlns="http://www.w3.org/2000/svg">
<path d="M19.7196 12.4377L19.6341 12.2958C19.3119 11.7611 18.7759 11.3846 18.1636 11.2628L17.4648 11.1238V7.58184H19.2732C19.6456 7.58184 19.9485 7.27892 19.9485 6.9066V1.6352C19.9485 1.26285 19.6456 0.959961 19.2732 0.959961H14.0018C13.6295 0.959961 13.3266 1.26288 13.3266 1.6352V3.63483C13.3266 3.78431 13.4478 3.90551 13.5973 3.90551C13.7468 3.90551 13.868 3.78431 13.868 3.63483V1.6352C13.868 1.56135 13.928 1.50127 14.0019 1.50127H19.2733C19.3472 1.50127 19.4072 1.56135 19.4072 1.6352V6.90664C19.4072 6.98049 19.3472 7.04057 19.2733 7.04057H14.0018C13.928 7.04057 13.8679 6.98049 13.8679 6.90664V5.39448C13.8679 5.245 13.7468 5.1238 13.5972 5.1238C13.4477 5.1238 13.3266 5.245 13.3266 5.39448V6.90664C13.3266 7.27899 13.6295 7.58188 14.0018 7.58188H16.0525V10.843L15.6933 10.7716C15.1975 10.673 14.7142 10.3738 14.3937 10.1572L12.6034 8.9478C11.9222 8.48768 11.1278 8.24446 10.3058 8.24446H7.01978C5.92636 8.24446 4.89758 8.66948 4.123 9.44116C3.63286 9.92948 3.01588 10.2625 2.33875 10.4044L1.95014 10.4858C1.37242 10.6067 0.953125 11.123 0.953125 11.7132V14.3346C0.953125 14.6473 1.13774 14.9315 1.42352 15.0585L2.50162 15.5376C2.56682 15.8785 2.73107 16.2041 2.99447 16.4675C3.34452 16.8175 3.80434 16.9926 4.2642 16.9926C4.72405 16.9926 5.18384 16.8175 5.53393 16.4675C5.75907 16.2424 5.91136 15.9717 5.9917 15.685H14.9809C15.0612 15.9717 15.2136 16.2424 15.4387 16.4675C15.7779 16.8066 16.2288 16.9934 16.7084 16.9934C17.1881 16.9934 17.639 16.8067 17.9782 16.4675C18.2034 16.2424 18.3556 15.9717 18.436 15.685H18.9495C19.5029 15.685 19.9531 15.2347 19.9531 14.6813V13.2774C19.9531 12.9815 19.8723 12.6912 19.7196 12.4377ZM16.5938 7.58184H16.9235V11.0162L16.5938 10.9506V7.58184ZM5.15111 16.0848C4.9142 16.3217 4.59922 16.4521 4.26416 16.4521C3.9291 16.4521 3.61412 16.3217 3.37721 16.0848C2.99718 15.7047 2.91264 15.1396 3.1232 14.677C3.12491 14.6733 3.12654 14.6695 3.12825 14.6658C3.13467 14.6521 3.14146 14.6385 3.1484 14.625C3.15166 14.6186 3.15493 14.6123 3.15834 14.606C3.16461 14.5942 3.17114 14.5826 3.17782 14.571C3.18242 14.563 3.18714 14.5551 3.19192 14.5472C3.19812 14.537 3.20439 14.5269 3.21092 14.5168C3.21683 14.5077 3.22291 14.4987 3.22907 14.4898C3.23516 14.4809 3.24121 14.472 3.24751 14.4633C3.25475 14.4533 3.26228 14.4435 3.26985 14.4337C3.27575 14.4261 3.28151 14.4184 3.28759 14.4108C3.2965 14.3998 3.30581 14.389 3.31509 14.3783C3.3204 14.3722 3.32548 14.3659 3.3309 14.3598C3.3447 14.3445 3.35892 14.3295 3.37354 14.3148C3.3748 14.3135 3.37595 14.3122 3.37721 14.3109C3.37999 14.3081 3.38293 14.3055 3.38575 14.3028C3.39814 14.2906 3.41061 14.2786 3.42334 14.267C3.42664 14.264 3.43013 14.2612 3.43347 14.2583C3.44616 14.247 3.45893 14.2359 3.47199 14.2252C3.47321 14.2242 3.47451 14.2233 3.47574 14.2223C3.93452 13.851 4.59621 13.8514 5.05444 14.2238C5.05496 14.2242 5.05551 14.2246 5.05607 14.225C5.07006 14.2364 5.08375 14.2484 5.09737 14.2605C5.09982 14.2626 5.10234 14.2647 5.10476 14.2668C5.12049 14.2811 5.13593 14.2957 5.15107 14.3109C5.1674 14.3272 5.18313 14.344 5.19842 14.361C5.20514 14.3685 5.21148 14.3762 5.21798 14.3838C5.22592 14.3931 5.2339 14.4024 5.24154 14.4119C5.25011 14.4225 5.25839 14.4334 5.26655 14.4442C5.27115 14.4502 5.27572 14.4563 5.28017 14.4625C5.29008 14.4761 5.29973 14.4899 5.30904 14.5039C5.31064 14.5063 5.3122 14.5087 5.31376 14.5111C5.63215 14.9974 5.57797 15.6578 5.15111 16.0848ZM17.5954 16.0848C17.3584 16.3217 17.0434 16.4521 16.7084 16.4521C16.3733 16.4521 16.0584 16.3217 15.8215 16.0848C15.3945 15.6578 15.3403 14.9973 15.6588 14.511C15.6603 14.5086 15.6618 14.5063 15.6634 14.504C15.6727 14.49 15.6824 14.4761 15.6923 14.4624C15.6967 14.4563 15.7013 14.4503 15.7058 14.4443C15.714 14.4334 15.7223 14.4226 15.731 14.4118C15.7386 14.4024 15.7465 14.3932 15.7544 14.384C15.7609 14.3764 15.7674 14.3686 15.7741 14.361C15.7894 14.344 15.8052 14.3272 15.8215 14.3109C16.0584 14.074 16.3733 13.9435 16.7084 13.9435C17.0435 13.9435 17.3584 14.074 17.5954 14.3109C17.6117 14.3272 17.6274 14.344 17.6427 14.3611C17.6495 14.3686 17.6558 14.3763 17.6623 14.3839C17.6703 14.3932 17.6782 14.4024 17.6858 14.4119C17.6944 14.4226 17.7027 14.4334 17.7109 14.4443C17.7155 14.4503 17.72 14.4564 17.7245 14.4625C17.7344 14.4762 17.7441 14.4899 17.7534 14.5039C17.755 14.5063 17.7565 14.5087 17.7581 14.5111C18.0764 14.9973 18.0222 15.6579 17.5954 16.0848ZM19.4118 14.6813H19.4117C19.4117 14.9363 19.2043 15.1437 18.9494 15.1437H18.5038C18.4932 14.7511 18.3546 14.3765 18.1052 14.0695C18.1036 14.0674 18.102 14.0652 18.1003 14.0632C18.0848 14.0443 18.0688 14.0259 18.0526 14.0076C18.0484 14.0029 18.0445 13.9981 18.0403 13.9934C18.0231 13.9744 18.0053 13.9558 17.9872 13.9375C17.9841 13.9344 17.9813 13.9311 17.9781 13.928C17.7449 13.6949 17.4589 13.5337 17.1471 13.4558C17.0054 13.4203 16.8583 13.4021 16.7084 13.4021C16.5885 13.4021 16.4703 13.4138 16.3553 13.4366C16.0102 13.505 15.693 13.6737 15.4386 13.928C15.4356 13.9311 15.4328 13.9343 15.4298 13.9374C15.4116 13.9558 15.3937 13.9744 15.3765 13.9935C15.3724 13.998 15.3686 14.0026 15.3646 14.0072C15.3482 14.0256 15.332 14.0443 15.3165 14.0633C15.3149 14.0652 15.3135 14.0671 15.3119 14.0691C15.0624 14.3762 14.9236 14.7509 14.913 15.1437H6.05954C6.04889 14.7505 5.90988 14.3752 5.65969 14.0679C5.65854 14.0664 5.65742 14.065 5.65627 14.0635C5.63995 14.0436 5.62299 14.024 5.60573 14.0046C5.60254 14.0011 5.59957 13.9974 5.59634 13.9938C5.57612 13.9715 5.55534 13.9496 5.53385 13.9281C5.44635 13.8406 5.35194 13.764 5.25245 13.6983C4.95387 13.5014 4.60901 13.403 4.26416 13.403C3.80434 13.403 3.34448 13.578 2.99443 13.9281C2.97443 13.9481 2.95509 13.9686 2.93617 13.9894C2.93056 13.9955 2.92518 14.0018 2.91965 14.008C2.9063 14.0231 2.89316 14.0384 2.88036 14.0538C2.87468 14.0607 2.869 14.0676 2.86343 14.0745C2.85019 14.0911 2.83727 14.1078 2.82465 14.1246C2.82072 14.1299 2.81668 14.1351 2.81285 14.1404C2.77894 14.1868 2.74747 14.2347 2.71837 14.2838C2.71756 14.2851 2.71678 14.2866 2.71596 14.2879C2.70175 14.3121 2.68813 14.3366 2.6751 14.3613C2.67473 14.362 2.67436 14.3628 2.67395 14.3635C2.57959 14.5431 2.51613 14.7373 2.48703 14.9387L1.64343 14.5638C1.55296 14.5236 1.49451 14.4336 1.49451 14.3346V11.7132C1.49451 11.3777 1.73286 11.0843 2.06124 11.0155L2.44985 10.9341C3.22989 10.7707 3.9406 10.3871 4.50518 9.82461C5.1776 9.15468 6.07067 8.78574 7.01989 8.78574H10.3059C11.0195 8.78574 11.7092 8.99689 12.3005 9.3963L14.0908 10.6057C14.45 10.8485 14.9961 11.1847 15.5878 11.3025L18.0581 11.7937C18.5213 11.8858 18.9268 12.1707 19.1705 12.5751L19.256 12.7171C19.358 12.8862 19.4118 13.0799 19.4118 13.2774V14.6813Z" fill="#FF5B2D"/>
</svg>
