<svg width="20" height="20" viewBox="0 0 20 20" fill="none" xmlns="http://www.w3.org/2000/svg">
<path d="M18.8012 6.37717C18.8016 6.22116 18.7711 6.06662 18.7114 5.9225C18.6517 5.77838 18.564 5.64754 18.4533 5.53757L17.4568 4.54103L18.2289 3.76893C18.4232 3.57421 18.5322 3.3104 18.5322 3.03537C18.5322 2.76033 18.4232 2.49652 18.2289 2.3018C18.137 2.18568 18.0217 2.09016 17.8905 2.02142C17.7593 1.95268 17.6151 1.91226 17.4673 1.90278C17.3195 1.8933 17.1714 1.91497 17.0325 1.96638C16.8936 2.01779 16.767 2.09779 16.661 2.20122L15.8892 2.9733L14.8925 1.97666C14.6699 1.754 14.3679 1.62891 14.0529 1.62891C13.738 1.62891 13.436 1.754 13.2133 1.97666L12.3254 2.86462C10.869 1.49892 8.64136 3.78094 10.0486 5.20507L11.853 7.00948L7.48597 11.3764L5.68159 9.57205C4.25971 8.16605 1.97874 10.3885 3.34118 11.8487L2.45337 12.7366C2.34307 12.8469 2.25558 12.9778 2.19589 13.1219C2.13619 13.2659 2.10547 13.4204 2.10547 13.5763C2.10547 13.7323 2.13619 13.8867 2.19589 14.0308C2.25558 14.1748 2.34307 14.3057 2.45337 14.416L3.44987 15.4125L2.67776 16.1846C1.71042 17.1688 3.25491 18.7235 4.24566 17.7525L5.01753 16.9802L6.01414 17.9769C6.23682 18.1996 6.53883 18.3246 6.85374 18.3246C7.16865 18.3246 7.47066 18.1996 7.69334 17.9769L8.5813 17.0889C10.0376 18.4548 12.2654 16.1724 10.8581 14.7485L9.05365 12.9441L13.4207 8.57713L15.2251 10.3815C15.382 10.5341 15.5695 10.6517 15.7751 10.7267C15.9807 10.8017 16.1998 10.8324 16.4181 10.8167C16.6365 10.8011 16.849 10.7394 17.0418 10.6358C17.2346 10.5322 17.4033 10.389 17.5369 10.2156C17.8149 9.93649 17.9734 9.56006 17.9788 9.16609C17.9841 8.77211 17.8359 8.39153 17.5655 8.10493L18.4533 7.21691C18.564 7.10691 18.6517 6.97604 18.7114 6.8319C18.7711 6.68775 18.8016 6.53319 18.8012 6.37717ZM17.0808 2.62115C17.5025 2.19307 18.2371 2.92675 17.8091 3.34913L17.0371 4.12118L16.3091 3.39305L17.0808 2.62115ZM3.82583 17.3324C3.40425 17.7606 2.66957 17.0266 3.09757 16.6044L3.86961 15.8324L4.59759 16.5605L3.82583 17.3324ZM7.27353 17.5571C7.16039 17.665 7.01006 17.7252 6.85373 17.7252C6.6974 17.7252 6.54707 17.665 6.43393 17.5571L2.87317 13.9962C2.76248 13.8845 2.70037 13.7336 2.70037 13.5763C2.70037 13.4191 2.76248 13.2681 2.87317 13.1564L3.7577 12.2718L8.15835 16.6723L7.27353 17.5571ZM10.4383 16.4747C10.3457 16.6084 10.2218 16.7175 10.0774 16.7925C9.93305 16.8674 9.77256 16.9059 9.6099 16.9047C9.44724 16.9035 9.28734 16.8626 9.14411 16.7855C9.00088 16.7084 8.87865 16.5975 8.78806 16.4623L3.7896 11.4639C3.69268 11.3614 3.61931 11.239 3.57458 11.1052C3.52986 10.9715 3.51488 10.8295 3.53067 10.6894C3.54646 10.5492 3.59266 10.4142 3.66602 10.2937C3.73939 10.1732 3.83817 10.0702 3.95546 9.99187C4.12884 9.81892 4.36373 9.7218 4.60862 9.7218C4.85351 9.72179 5.08841 9.81891 5.2618 9.99185L10.4383 15.1683C10.6112 15.3417 10.7083 15.5766 10.7083 15.8215C10.7083 16.0664 10.6112 16.3013 10.4383 16.4747ZM13.0008 8.1574L8.63381 12.5243L7.90585 11.7962L12.2729 7.42928L13.0008 8.1574ZM17.1171 9.79587C17.0387 9.91319 16.9357 10.012 16.8152 10.0854C16.6947 10.1588 16.5597 10.205 16.4195 10.2208C16.2793 10.2366 16.1374 10.2215 16.0036 10.1768C15.8698 10.132 15.7474 10.0586 15.6449 9.96168L10.4684 4.78523C10.2955 4.61187 10.1984 4.377 10.1984 4.13212C10.1984 3.88725 10.2955 3.65237 10.4684 3.47901C10.564 3.35004 10.6871 3.24396 10.8287 3.16846C10.9704 3.09297 11.1271 3.04997 11.2874 3.04256C11.4506 3.05089 11.6099 3.09547 11.7537 3.17308C11.8974 3.25069 12.0221 3.35937 12.1186 3.49121L16.9391 8.31164L17.1171 8.48965C17.29 8.66301 17.3871 8.89788 17.3871 9.14276C17.3871 9.38763 17.29 9.6225 17.1171 9.79587ZM18.0335 6.79711L17.149 7.6818L12.7483 3.28129L13.6331 2.39646C13.7463 2.28857 13.8966 2.22839 14.0529 2.22839C14.2093 2.22839 14.3596 2.28857 14.4727 2.39646L18.0335 5.95737C18.1442 6.06908 18.2063 6.21998 18.2063 6.37724C18.2063 6.5345 18.1442 6.6854 18.0335 6.79711Z" fill="#FF5B2D"/>
</svg>
