<svg width="20" height="20" viewBox="0 0 20 20" fill="none" xmlns="http://www.w3.org/2000/svg">
<path d="M10.4538 18.4767C10.2151 18.4765 9.98046 18.4152 9.77217 18.2987L7.07153 16.7985C5.729 16.052 4.61035 14.9602 3.83133 13.6363C3.05231 12.3124 2.64123 10.8043 2.64063 9.26819V5.10456C2.64039 4.75791 2.7688 4.42351 3.00098 4.1661C3.23316 3.9087 3.55259 3.7466 3.89743 3.7112C4.97179 3.59738 6.02917 3.35839 7.04805 2.99909C7.98226 2.66892 8.87845 2.23972 9.7213 1.7188C9.94184 1.58395 10.1953 1.51263 10.4538 1.5127C10.7123 1.51276 10.9658 1.58422 11.1863 1.7192C12.0292 2.23983 12.9254 2.66889 13.8595 2.99909C14.8784 3.3584 15.9358 3.5974 17.0101 3.71122C17.355 3.74662 17.6744 3.90872 17.9066 4.16612C18.1388 4.42352 18.2672 4.75792 18.2669 5.10456V9.26822C18.2663 10.8043 17.8553 12.3124 17.0762 13.6363C16.2972 14.9603 15.1786 16.052 13.836 16.7985L11.1346 18.2991C10.9265 18.4154 10.6922 18.4765 10.4538 18.4767ZM10.4538 2.71342C10.4185 2.71326 10.3838 2.72288 10.3536 2.7412C9.4376 3.30686 8.46378 3.77343 7.44872 4.1322C6.34134 4.52297 5.19201 4.78273 4.0242 4.90616C3.97459 4.91046 3.92839 4.93324 3.89477 4.96998C3.86115 5.00673 3.84255 5.05476 3.84265 5.10456V9.26822C3.84312 10.59 4.19683 11.8876 4.86716 13.0268C5.53749 14.1659 6.50009 15.1052 7.65532 15.7475L10.3568 17.2481C10.3862 17.2647 10.4195 17.2734 10.4533 17.2735C10.4872 17.2736 10.5205 17.2649 10.55 17.2485L13.2523 15.7475C14.4075 15.1053 15.3701 14.1659 16.0404 13.0268C16.7108 11.8876 17.0645 10.59 17.0649 9.26822V5.10456C17.065 5.05476 17.0464 5.00674 17.0128 4.97C16.9792 4.93326 16.933 4.91049 16.8834 4.90618C15.7156 4.78274 14.5662 4.52298 13.4588 4.1322C12.4438 3.77343 11.47 3.30724 10.554 2.74157C10.5239 2.72296 10.4892 2.7132 10.4538 2.71342Z" fill="#FF5B2D"/>
<path d="M10.0549 11.7796C9.90773 11.7799 9.76564 11.7258 9.65583 11.6278L7.8528 10.0251C7.7342 9.91913 7.66248 9.77043 7.65334 9.61164C7.6442 9.45284 7.69839 9.2969 7.80404 9.17799C7.90969 9.05909 8.05817 8.98692 8.21693 8.97731C8.3757 8.9677 8.5318 9.02144 8.65102 9.12673L10.0166 10.3405L12.6218 7.56199C12.6755 7.50339 12.7404 7.45604 12.8125 7.42267C12.8847 7.38931 12.9628 7.37059 13.0422 7.36761C13.1217 7.36463 13.2009 7.37744 13.2754 7.4053C13.3498 7.43317 13.418 7.47553 13.476 7.52993C13.534 7.58434 13.5806 7.6497 13.6131 7.72225C13.6457 7.79479 13.6635 7.87307 13.6656 7.95255C13.6676 8.03203 13.6539 8.11113 13.6252 8.18527C13.5965 8.25941 13.5533 8.32711 13.4983 8.38446L10.4932 11.5899C10.4371 11.6499 10.3692 11.6977 10.2938 11.7303C10.2184 11.763 10.1371 11.7798 10.0549 11.7796Z" fill="#FF5B2D"/>
</svg>
