<svg width="20" height="20" viewBox="0 0 20 20" fill="none" xmlns="http://www.w3.org/2000/svg">
<path d="M4.23671 16.4725V4.40234L4.10414 4.53582C4.01889 4.62107 3.90326 4.66896 3.7827 4.66896C3.66214 4.66896 3.54652 4.62107 3.46127 4.53582C3.37602 4.45057 3.32813 4.33495 3.32812 4.21438C3.32812 4.09382 3.37602 3.9782 3.46127 3.89295L4.36927 2.98494C4.41145 2.94266 4.46155 2.90912 4.5167 2.88623C4.57186 2.86334 4.63099 2.85156 4.69071 2.85156C4.75043 2.85156 4.80956 2.86334 4.86471 2.88623C4.91987 2.90912 4.96997 2.94266 5.01214 2.98494L5.92015 3.89295C6.0054 3.9782 6.05329 4.09382 6.05329 4.21438C6.05329 4.33495 6.0054 4.45057 5.92015 4.53582C5.8349 4.62107 5.71928 4.66896 5.59872 4.66896C5.47815 4.66896 5.36253 4.62107 5.27728 4.53582L5.14471 4.40234V16.4725H17.2148L17.0814 16.3399C16.9961 16.2547 16.9482 16.139 16.9482 16.0185C16.9482 15.8979 16.9961 15.7823 17.0814 15.697C17.1666 15.6118 17.2822 15.5639 17.4028 15.5639C17.5234 15.5639 17.639 15.6118 17.7242 15.697L18.6322 16.605C18.6745 16.6472 18.7081 16.6973 18.731 16.7525C18.7538 16.8076 18.7656 16.8668 18.7656 16.9265C18.7656 16.9862 18.7538 17.0453 18.731 17.1005C18.7081 17.1556 18.6745 17.2057 18.6322 17.2479L17.7242 18.1559C17.639 18.2412 17.5234 18.2891 17.4028 18.2891C17.2822 18.2891 17.1666 18.2412 17.0814 18.1559C16.9961 18.0707 16.9482 17.955 16.9482 17.8345C16.9482 17.7139 16.9961 17.5983 17.0814 17.5131L17.2148 17.3805H5.14471V17.8345C5.14471 17.9549 5.09688 18.0704 5.01174 18.1555C4.9266 18.2407 4.81112 18.2885 4.69071 18.2885C4.5703 18.2885 4.45482 18.2407 4.36968 18.1555C4.28454 18.0704 4.23671 17.9549 4.23671 17.8345V17.3805H3.7827C3.66229 17.3805 3.54682 17.3326 3.46167 17.2475C3.37653 17.1624 3.3287 17.0469 3.3287 16.9265C3.3287 16.8061 3.37653 16.6906 3.46167 16.6054C3.54682 16.5203 3.66229 16.4725 3.7827 16.4725H4.23671ZM12.7102 4.17262L17.6543 7.46868C17.7058 7.50085 17.7504 7.54303 17.7853 7.59272C17.8202 7.64242 17.8448 7.69861 17.8577 7.75799C17.8705 7.81736 17.8713 7.8787 17.8599 7.93838C17.8486 7.99806 17.8254 8.05486 17.7918 8.10542C17.7581 8.15597 17.7146 8.19926 17.6639 8.23272C17.6133 8.26618 17.5564 8.28912 17.4966 8.30019C17.4369 8.31126 17.3756 8.31023 17.3162 8.29717C17.2569 8.28411 17.2008 8.25928 17.1513 8.22414L16.9488 8.08976V13.5215C16.9483 13.8223 16.8286 14.1107 16.6158 14.3235C16.4031 14.5362 16.1147 14.656 15.8138 14.6565H8.09573C7.79486 14.656 7.50644 14.5362 7.29369 14.3235C7.08094 14.1107 6.96121 13.8223 6.96073 13.5215V8.08976L6.75824 8.22414C6.65806 8.28669 6.53745 8.30773 6.422 8.28281C6.30656 8.25789 6.20537 8.18896 6.13991 8.09066C6.07445 7.99235 6.04988 7.87241 6.07141 7.75628C6.09293 7.64016 6.15886 7.53699 6.2552 7.46868L11.1993 4.17262C11.423 4.02348 11.6859 3.9439 11.9548 3.9439C12.2236 3.9439 12.4865 4.02348 12.7102 4.17262ZM16.0408 7.48321L12.2063 4.92808C12.1318 4.87849 12.0443 4.85204 11.9548 4.85204C11.8653 4.85204 11.7778 4.87849 11.7032 4.92808L7.86873 7.48321V13.5215C7.86873 13.5817 7.89265 13.6394 7.93522 13.682C7.97779 13.7245 8.03553 13.7485 8.09573 13.7485H15.8138C15.874 13.7485 15.9317 13.7245 15.9743 13.682C16.0169 13.6394 16.0408 13.5817 16.0408 13.5215V7.48321Z" fill="#FF5B2D"/>
</svg>
