<svg width="20" height="20" viewBox="0 0 20 20" fill="none" xmlns="http://www.w3.org/2000/svg">
<g clip-path="url(#clip0_5713_64230)">
<path d="M9.85938 4.63281C9.85938 4.96073 9.59355 5.22656 9.26562 5.22656C8.9377 5.22656 8.67188 4.96073 8.67188 4.63281C8.67188 4.3049 8.9377 4.03906 9.26562 4.03906C9.59355 4.03906 9.85938 4.3049 9.85938 4.63281Z" fill="#FF5B2D"/>
<path d="M6.89062 5.22656C7.21855 5.22656 7.48438 4.96073 7.48438 4.63281C7.48438 4.3049 7.21855 4.03906 6.89062 4.03906C6.5627 4.03906 6.29688 4.3049 6.29688 4.63281C6.29688 4.96073 6.5627 5.22656 6.89062 5.22656Z" fill="#FF5B2D"/>
<path d="M5.10938 4.63281C5.10938 4.96073 4.84354 5.22656 4.51562 5.22656C4.18771 5.22656 3.92188 4.96073 3.92188 4.63281C3.92188 4.3049 4.18771 4.03906 4.51562 4.03906C4.84354 4.03906 5.10938 4.3049 5.10938 4.63281Z" fill="#FF5B2D"/>
<path d="M9.26562 7.60156C9.59355 7.60156 9.85938 7.33574 9.85938 7.00781C9.85938 6.67988 9.59355 6.41406 9.26562 6.41406C8.9377 6.41406 8.67188 6.67988 8.67188 7.00781C8.67188 7.33574 8.9377 7.60156 9.26562 7.60156Z" fill="#FF5B2D"/>
<path d="M7.48438 7.00781C7.48438 7.33574 7.21855 7.60156 6.89062 7.60156C6.5627 7.60156 6.29688 7.33574 6.29688 7.00781C6.29688 6.67988 6.5627 6.41406 6.89062 6.41406C7.21855 6.41406 7.48438 6.67988 7.48438 7.00781Z" fill="#FF5B2D"/>
<path d="M4.51562 7.60156C4.84354 7.60156 5.10938 7.33574 5.10938 7.00781C5.10938 6.67988 4.84354 6.41406 4.51562 6.41406C4.18771 6.41406 3.92188 6.67988 3.92188 7.00781C3.92188 7.33574 4.18771 7.60156 4.51562 7.60156Z" fill="#FF5B2D"/>
<path fill-rule="evenodd" clip-rule="evenodd" d="M0.953125 3.44531C0.953125 1.80572 2.28228 0.476562 3.92188 0.476562H9.85938C11.499 0.476562 12.8281 1.80572 12.8281 3.44531V9.43025L17.6336 9.83068C18.9446 9.93993 19.9531 11.0359 19.9531 12.3516C19.9531 13.6672 18.9446 14.7632 17.6336 14.8724L12.8281 15.2729V16.5078C12.8281 18.1474 11.499 19.4766 9.85938 19.4766H3.92188C2.28228 19.4766 0.953125 18.1474 0.953125 16.5078V3.44531ZM11.6406 15.3719L8.11719 15.6655C6.17841 15.827 4.51562 14.297 4.51562 12.3516C4.51562 10.4061 6.17841 8.87611 8.11719 9.03767L11.6406 9.33127V3.44531C11.6406 2.46156 10.8432 1.66406 9.85938 1.66406H3.92188C2.93812 1.66406 2.14062 2.46156 2.14062 3.44531V16.5078C2.14062 17.4916 2.93812 18.2891 3.92188 18.2891H9.85938C10.8432 18.2891 11.6406 17.4916 11.6406 16.5078V15.3719ZM5.70312 12.3516C5.70312 11.1008 6.77213 10.1172 8.01857 10.2211L17.535 11.0141C18.2306 11.072 18.7656 11.6536 18.7656 12.3516C18.7656 13.0496 18.2306 13.6311 17.535 13.689L8.01857 14.4821C6.77213 14.586 5.70312 13.6023 5.70312 12.3516Z" fill="#FF5B2D"/>
</g>
<defs>
<clipPath id="clip0_5713_64230">
<rect width="19" height="19" fill="white" transform="translate(0.953125 0.476562)"/>
</clipPath>
</defs>
</svg>
