<svg width="20" height="20" viewBox="0 0 20 20" fill="none" xmlns="http://www.w3.org/2000/svg">
<path d="M15.6706 1.66406C14.25 1.66406 13.0981 2.81591 13.0981 4.23651V5.59953H6.99335V4.23651C6.99335 3.19985 7.83803 2.35517 8.87469 2.35517C9.91135 2.35517 10.756 3.19985 10.756 4.23651C10.756 4.42849 10.9096 4.58206 11.1016 4.58206C11.2936 4.58206 11.4471 4.42849 11.4471 4.23651C11.4471 2.81591 10.2953 1.66406 8.87469 1.66406C7.45409 1.66406 6.30224 2.81591 6.30224 4.23651V12.9713C6.28305 13.1633 6.45582 13.3361 6.6478 13.3361C6.83977 13.3361 6.99335 13.1825 6.99335 12.9905V12.1266H13.1173V12.9905C13.1173 13.1825 13.2709 13.3361 13.4629 13.3361C13.6548 13.3361 13.8084 13.1825 13.8084 12.9905V4.23651C13.8084 3.19985 14.6531 2.35517 15.6898 2.35517C16.7264 2.35517 17.5519 3.19985 17.5519 4.23651C17.5519 4.42849 17.7055 4.58206 17.8975 4.58206C18.0894 4.58206 18.243 4.42849 18.243 4.23651C18.243 2.81591 17.0912 1.66406 15.6706 1.66406ZM13.1173 11.3971H6.99335V10.1685H13.1173V11.3971ZM13.1173 9.4774H6.99335V8.24876H13.1173V9.4774ZM13.1173 7.51926H6.99335V6.29063H13.1173V7.51926Z" fill="#FF5B2D"/>
<path d="M17.3802 14.6799C17.3034 14.5071 17.0922 14.4111 16.9194 14.5071C15.1917 15.2558 14.347 14.8911 13.4447 14.5071C12.5232 14.1232 11.5825 13.72 9.91238 14.5071C8.18461 15.2558 7.33993 14.8911 6.43765 14.5071C5.51618 14.1232 4.55631 13.72 2.88614 14.5071C2.71336 14.5839 2.63657 14.7951 2.71336 14.9679C2.79015 15.1406 3.00132 15.2174 3.1741 15.1406C4.57551 14.4879 5.30501 14.7951 6.14969 15.1598C6.70641 15.3902 7.30153 15.6398 8.08863 15.6398C8.66455 15.6398 9.33645 15.5054 10.1811 15.1406C11.5825 14.4879 12.312 14.7951 13.1567 15.1598C13.7135 15.3902 14.3086 15.6398 15.0957 15.6398C15.6716 15.6398 16.3435 15.5054 17.1882 15.1406C17.361 15.0639 17.4569 14.8527 17.3802 14.6799Z" fill="#FF5B2D"/>
<path d="M17.3606 17.3293C17.2838 17.1565 17.0727 17.0606 16.8999 17.1565C15.1721 17.9052 14.3274 17.5405 13.4252 17.1565C12.5037 16.7726 11.563 16.3695 9.89285 17.1565C8.16508 17.9052 7.3204 17.5405 6.41812 17.1565C5.49665 16.7726 4.55597 16.3695 2.8666 17.1565C2.69383 17.2333 2.61704 17.4445 2.69383 17.6173C2.78982 17.7901 3.00099 17.8668 3.17376 17.7901C4.57517 17.1373 5.30467 17.4445 6.14936 17.8093C6.70608 18.0396 7.3012 18.2892 8.08829 18.2892C8.66421 18.2892 9.33612 18.1548 10.1808 17.7901C11.5822 17.1373 12.3117 17.4445 13.1564 17.8093C13.7131 18.0396 14.3082 18.2892 15.0953 18.2892C15.6713 18.2892 16.3432 18.1548 17.1878 17.7901C17.3606 17.7133 17.4566 17.5021 17.3606 17.3293Z" fill="#FF5B2D"/>
</svg>
