<svg width="20" height="20" viewBox="0 0 20 20" fill="none" xmlns="http://www.w3.org/2000/svg">
<g clip-path="url(#clip0_5713_30869)">
<path d="M17.62 2.81152H3.28762C2.08872 2.81342 1.11782 3.78496 1.11719 4.98386V13.0538C1.11782 14.2527 2.08872 15.2242 3.28762 15.2255H8.54872L6.65379 16.2306C6.09202 16.4915 6.48279 17.351 7.05025 17.0938C7.08255 17.0691 10.4145 15.3148 10.4538 15.2888L13.806 17.0704C13.8744 17.1071 13.9504 17.1261 14.0283 17.1261C14.5128 17.1458 14.6902 16.4428 14.2538 16.2306L12.3589 15.2255H17.62C18.8182 15.2242 19.7891 14.2527 19.7904 13.0544V4.98386C19.7898 3.78496 18.8189 2.81342 17.62 2.81152ZM18.8404 13.0532C18.8404 13.7277 18.2945 14.2742 17.62 14.2749H3.28762C2.61375 14.2742 2.06782 13.7277 2.06719 13.0538V4.98386C2.06719 4.30936 2.61312 3.76279 3.28762 3.76216H17.62C18.2938 3.76279 18.8398 4.30936 18.8404 4.98322V13.0532Z" fill="#FF5B2D"/>
<path d="M9.61721 6.8252H6.04141C5.77921 6.8252 5.56641 7.038 5.56641 7.3002C5.56641 7.5624 5.77921 7.7752 6.04141 7.7752H7.35431V10.7367C7.35431 10.9989 7.56711 11.2117 7.82931 11.2117C8.09151 11.2117 8.30431 10.9989 8.30431 10.7367V7.7752H9.61721C10.2385 7.77266 10.2385 6.82836 9.61721 6.8252Z" fill="#FF5B2D"/>
<path d="M15.0759 6.8735C14.8403 6.75823 14.5559 6.8564 14.4406 7.092L13.1917 9.65193L11.9434 7.09073C11.6679 6.5334 10.8167 6.9476 11.0878 7.50873L12.7648 10.9452C12.9282 11.2904 13.4545 11.2929 13.6186 10.9452L15.2944 7.50873C15.4096 7.27313 15.3115 6.98877 15.0759 6.8735Z" fill="#FF5B2D"/>
</g>
<defs>
<clipPath id="clip0_5713_30869">
<rect width="19" height="19" fill="white" transform="translate(0.953125 0.476562)"/>
</clipPath>
</defs>
</svg>
