<svg width="20" height="20" viewBox="0 0 20 20" fill="none" xmlns="http://www.w3.org/2000/svg">
<path d="M17.4682 8.53648C13.7439 5.00702 8.00969 4.82126 4.07432 7.97979C3.85602 8.15501 3.64318 8.34056 3.43645 8.53648C3.21404 8.74723 2.86289 8.73784 2.65211 8.51542C2.44134 8.29301 2.45077 7.94184 2.67318 7.73107C2.90201 7.51421 3.13778 7.30865 3.37973 7.11444C7.74414 3.61156 14.1011 3.81688 18.2315 7.73107C18.4538 7.94184 18.4633 8.293 18.2525 8.51541C18.0418 8.73784 17.6906 8.74723 17.4682 8.53648Z" fill="#FF5B2D"/>
<path d="M4.88125 10.2693C7.9578 7.19279 12.9458 7.19279 16.0224 10.2693C16.239 10.486 16.239 10.8373 16.0224 11.054C15.8057 11.2706 15.4545 11.2706 15.2378 11.054C12.5946 8.41075 8.30908 8.41075 5.66588 11.054C5.44921 11.2706 5.09792 11.2706 4.88125 11.054C4.66458 10.8373 4.66458 10.486 4.88125 10.2693Z" fill="#FF5B2D"/>
<path d="M7.1 12.6792C8.95089 10.8283 11.9518 10.8283 13.8026 12.6792C14.0193 12.8958 14.0193 13.2471 13.8026 13.4638C13.5859 13.6805 13.2347 13.6805 13.018 13.4638C11.6004 12.0462 9.30219 12.0462 7.88463 13.4638C7.66796 13.6805 7.31667 13.6805 7.1 13.4638C6.88333 13.2471 6.88333 12.8958 7.1 12.6792Z" fill="#FF5B2D"/>
<path d="M10.452 15.9138C10.9627 15.9138 11.3767 15.4998 11.3767 14.9891C11.3767 14.4784 10.9627 14.0645 10.452 14.0645C9.94131 14.0645 9.52734 14.4784 9.52734 14.9891C9.52734 15.4998 9.94131 15.9138 10.452 15.9138Z" fill="#FF5B2D"/>
</svg>
