<svg width="25" height="25" viewBox="0 0 25 25" fill="none" xmlns="http://www.w3.org/2000/svg">
<g clip-path="url(#clip0_5120_37364)">
<path d="M7.90625 0.476563H4.90625C3.84538 0.476563 2.82797 0.89799 2.07782 1.64814C1.32768 2.39828 0.90625 3.4157 0.90625 4.47656L0.90625 7.47656C0.90625 8.53743 1.32768 9.55484 2.07782 10.305C2.82797 11.0551 3.84538 11.4766 4.90625 11.4766H7.90625C8.96712 11.4766 9.98453 11.0551 10.7347 10.305C11.4848 9.55484 11.9062 8.53743 11.9062 7.47656V4.47656C11.9062 3.4157 11.4848 2.39828 10.7347 1.64814C9.98453 0.89799 8.96712 0.476563 7.90625 0.476562V0.476563ZM9.90625 7.47656C9.90625 8.007 9.69554 8.5157 9.32046 8.89078C8.94539 9.26585 8.43668 9.47656 7.90625 9.47656H4.90625C4.37582 9.47656 3.86711 9.26585 3.49204 8.89078C3.11696 8.5157 2.90625 8.007 2.90625 7.47656V4.47656C2.90625 3.94613 3.11696 3.43742 3.49204 3.06235C3.86711 2.68728 4.37582 2.47656 4.90625 2.47656H7.90625C8.43668 2.47656 8.94539 2.68728 9.32046 3.06235C9.69554 3.43742 9.90625 3.94613 9.90625 4.47656V7.47656Z" fill="white"/>
<path d="M20.9062 0.476563H17.9062C16.8454 0.476563 15.828 0.89799 15.0778 1.64814C14.3277 2.39828 13.9063 3.4157 13.9062 4.47657V7.47657C13.9063 8.53743 14.3277 9.55485 15.0778 10.305C15.828 11.0551 16.8454 11.4766 17.9062 11.4766H20.9062C21.9671 11.4766 22.9845 11.0551 23.7347 10.305C24.4848 9.55485 24.9062 8.53743 24.9062 7.47657V4.47657C24.9062 3.4157 24.4848 2.39828 23.7347 1.64814C22.9845 0.89799 21.9671 0.476563 20.9062 0.476562V0.476563ZM22.9062 7.47657C22.9062 8.007 22.6955 8.51571 22.3205 8.89078C21.9454 9.26585 21.4367 9.47657 20.9062 9.47657H17.9062C17.3758 9.47657 16.8671 9.26585 16.492 8.89078C16.117 8.51571 15.9062 8.007 15.9062 7.47657V4.47657C15.9062 3.94613 16.117 3.43742 16.492 3.06235C16.8671 2.68728 17.3758 2.47656 17.9062 2.47656H20.9062C21.4367 2.47656 21.9454 2.68728 22.3205 3.06235C22.6955 3.43742 22.9062 3.94613 22.9062 4.47657V7.47657Z" fill="white"/>
<path d="M7.90625 13.4766H4.90625C3.84538 13.4766 2.82797 13.898 2.07782 14.6481C1.32768 15.3983 0.90625 16.4157 0.90625 17.4766L0.90625 20.4766C0.90625 21.5374 1.32768 22.5549 2.07782 23.305C2.82797 24.0551 3.84538 24.4766 4.90625 24.4766H7.90625C8.96712 24.4766 9.98453 24.0551 10.7347 23.305C11.4848 22.5549 11.9062 21.5374 11.9062 20.4766V17.4766C11.9062 16.4157 11.4848 15.3983 10.7347 14.6481C9.98453 13.898 8.96712 13.4766 7.90625 13.4766ZM9.90625 20.4766C9.90625 21.007 9.69554 21.5157 9.32046 21.8908C8.94539 22.2659 8.43668 22.4766 7.90625 22.4766H4.90625C4.37582 22.4766 3.86711 22.2659 3.49204 21.8908C3.11696 21.5157 2.90625 21.007 2.90625 20.4766V17.4766C2.90625 16.9461 3.11696 16.4374 3.49204 16.0624C3.86711 15.6873 4.37582 15.4766 4.90625 15.4766H7.90625C8.43668 15.4766 8.94539 15.6873 9.32046 16.0624C9.69554 16.4374 9.90625 16.9461 9.90625 17.4766V20.4766Z" fill="white"/>
<path d="M20.9062 13.4766H17.9062C16.8454 13.4766 15.828 13.898 15.0778 14.6481C14.3277 15.3983 13.9063 16.4157 13.9062 17.4766V20.4766C13.9063 21.5374 14.3277 22.5549 15.0778 23.305C15.828 24.0551 16.8454 24.4766 17.9062 24.4766H20.9062C21.9671 24.4766 22.9845 24.0551 23.7347 23.305C24.4848 22.5549 24.9062 21.5374 24.9062 20.4766V17.4766C24.9062 16.4157 24.4848 15.3983 23.7347 14.6481C22.9845 13.898 21.9671 13.4766 20.9062 13.4766ZM22.9062 20.4766C22.9062 21.007 22.6955 21.5157 22.3205 21.8908C21.9454 22.2659 21.4367 22.4766 20.9062 22.4766H17.9062C17.3758 22.4766 16.8671 22.2659 16.492 21.8908C16.117 21.5157 15.9062 21.007 15.9062 20.4766V17.4766C15.9062 16.9461 16.117 16.4374 16.492 16.0624C16.8671 15.6873 17.3758 15.4766 17.9062 15.4766H20.9062C21.4367 15.4766 21.9454 15.6873 22.3205 16.0624C22.6955 16.4374 22.9062 16.9461 22.9062 17.4766V20.4766Z" fill="white"/>
</g>
<defs>
<clipPath id="clip0_5120_37364">
<rect width="24" height="24" fill="white" transform="translate(0.90625 0.476562)"/>
</clipPath>
</defs>
</svg>
