<svg width="25" height="25" viewBox="0 0 25 25" fill="none" xmlns="http://www.w3.org/2000/svg">
<g clip-path="url(#clip0_5120_36594)">
<path d="M20.4069 0.476598L4.43748 0.476561C3.37661 0.476561 2.3592 0.897989 1.60905 1.64813C0.858908 2.39828 0.437481 3.4157 0.437481 4.47656V7.47657C0.437481 8.53743 0.858908 9.55485 1.60905 10.305C2.3592 11.0551 3.37661 11.4766 4.43748 11.4766L20.4069 11.4766C21.4678 11.4766 22.4852 11.0552 23.2353 10.305C23.9855 9.5549 24.4069 8.53747 24.4069 7.4766V4.4766C24.4069 3.41573 23.9855 2.39832 23.2353 1.64817C22.4852 0.898026 21.4678 0.476598 20.4069 0.476598ZM22.4069 7.4766C22.4069 8.00704 22.1962 8.51576 21.8211 8.89083C21.446 9.2659 20.9373 9.47662 20.4069 9.47662L4.43748 9.47657C3.90704 9.47657 3.39834 9.26585 3.02326 8.89078C2.64819 8.51571 2.43748 8.007 2.43748 7.47657V4.47656C2.43748 3.94613 2.64819 3.43742 3.02326 3.06235C3.39834 2.68728 3.90704 2.47656 4.43748 2.47656L20.4069 2.4766C20.9373 2.4766 21.446 2.68731 21.8211 3.06239C22.1962 3.43746 22.4069 3.94617 22.4069 4.4766V7.4766Z" fill="white"/>
<path d="M20.4069 13.4766L4.43748 13.4766C3.37661 13.4766 2.3592 13.898 1.60905 14.6481C0.858908 15.3983 0.437481 16.4157 0.437481 17.4766V20.4766C0.437481 21.5374 0.858908 22.5549 1.60905 23.305C2.3592 24.0551 3.37661 24.4766 4.43748 24.4766L20.4069 24.4766C21.4678 24.4766 22.4852 24.0552 23.2353 23.305C23.9855 22.5549 24.4069 21.5375 24.4069 20.4766V17.4766C24.4069 16.4157 23.9855 15.3983 23.2353 14.6482C22.4852 13.898 21.4678 13.4766 20.4069 13.4766ZM22.4069 20.4766C22.4069 21.007 22.1962 21.5158 21.8211 21.8908C21.446 22.2659 20.9373 22.4766 20.4069 22.4766L4.43748 22.4766C3.90704 22.4766 3.39834 22.2659 3.02326 21.8908C2.64819 21.5157 2.43748 21.007 2.43748 20.4766V17.4766C2.43748 16.9461 2.64819 16.4374 3.02326 16.0623C3.39834 15.6873 3.90704 15.4766 4.43748 15.4766L20.4069 15.4766C20.9373 15.4766 21.446 15.6873 21.8211 16.0624C22.1962 16.4375 22.4069 16.9462 22.4069 17.4766V20.4766Z" fill="white"/>
</g>
<defs>
<clipPath id="clip0_5120_36594">
<rect width="24" height="24" fill="white" transform="translate(0.40625 0.476562)"/>
</clipPath>
</defs>
</svg>
