<svg width="21" height="22" viewBox="0 0 21 22" fill="none" xmlns="http://www.w3.org/2000/svg">
<g clip-path="url(#clip0_5120_37154)">
<path d="M16.7865 1.77344H15.9531V0.898438C15.9531 0.666373 15.8653 0.443813 15.709 0.279719C15.5528 0.115625 15.3408 0.0234375 15.1198 0.0234375C14.8988 0.0234375 14.6868 0.115625 14.5305 0.279719C14.3743 0.443813 14.2865 0.666373 14.2865 0.898438V1.77344H7.61979V0.898438C7.61979 0.666373 7.53199 0.443813 7.37571 0.279719C7.21943 0.115625 7.00747 0.0234375 6.78646 0.0234375C6.56544 0.0234375 6.35348 0.115625 6.1972 0.279719C6.04092 0.443813 5.95312 0.666373 5.95312 0.898438V1.77344H5.11979C4.01513 1.77483 2.95609 2.23621 2.17497 3.05638C1.39386 3.87655 0.954448 4.98854 0.953125 6.14844L0.953125 16.6484C0.954448 17.8083 1.39386 18.9203 2.17497 19.7405C2.95609 20.5607 4.01513 21.022 5.11979 21.0234H16.7865C17.8911 21.022 18.9502 20.5607 19.7313 19.7405C20.5124 18.9203 20.9518 17.8083 20.9531 16.6484V6.14844C20.9518 4.98854 20.5124 3.87655 19.7313 3.05638C18.9502 2.23621 17.8911 1.77483 16.7865 1.77344ZM2.61979 6.14844C2.61979 5.45224 2.88318 4.78457 3.35202 4.29228C3.82087 3.8 4.45675 3.52344 5.11979 3.52344H16.7865C17.4495 3.52344 18.0854 3.8 18.5542 4.29228C19.0231 4.78457 19.2865 5.45224 19.2865 6.14844V7.02344H2.61979V6.14844ZM16.7865 19.2734H5.11979C4.45675 19.2734 3.82087 18.9969 3.35202 18.5046C2.88318 18.0123 2.61979 17.3446 2.61979 16.6484V8.77344H19.2865V16.6484C19.2865 17.3446 19.0231 18.0123 18.5542 18.5046C18.0854 18.9969 17.4495 19.2734 16.7865 19.2734Z" fill="#A2A2A2"/>
<path d="M10.9531 14.4609C11.6435 14.4609 12.2031 13.8733 12.2031 13.1484C12.2031 12.4236 11.6435 11.8359 10.9531 11.8359C10.2628 11.8359 9.70312 12.4236 9.70312 13.1484C9.70312 13.8733 10.2628 14.4609 10.9531 14.4609Z" fill="#A2A2A2"/>
<path d="M6.78516 14.4609C7.47551 14.4609 8.03516 13.8733 8.03516 13.1484C8.03516 12.4236 7.47551 11.8359 6.78516 11.8359C6.0948 11.8359 5.53516 12.4236 5.53516 13.1484C5.53516 13.8733 6.0948 14.4609 6.78516 14.4609Z" fill="#A2A2A2"/>
<path d="M15.1211 14.4609C15.8114 14.4609 16.3711 13.8733 16.3711 13.1484C16.3711 12.4236 15.8114 11.8359 15.1211 11.8359C14.4307 11.8359 13.8711 12.4236 13.8711 13.1484C13.8711 13.8733 14.4307 14.4609 15.1211 14.4609Z" fill="#A2A2A2"/>
</g>
<defs>
<clipPath id="clip0_5120_37154">
<rect width="20" height="21" fill="white" transform="translate(0.953125 0.0234375)"/>
</clipPath>
</defs>
</svg>
