<svg width="74" height="75" viewBox="0 0 74 75" fill="none" xmlns="http://www.w3.org/2000/svg">
<path d="M65.4296 39.5762H51.1021V26.0806C51.1021 24.3375 49.6891 22.9246 47.9461 22.9246H46.1766H29.2476V17.9199C29.2476 13.615 32.747 10.1156 37.0518 10.1156C41.3567 10.1156 44.8561 13.615 44.8561 17.9199C44.8561 18.6461 45.4503 19.2404 46.1766 19.2404C46.9029 19.2404 47.4971 18.6461 47.4971 17.9199C47.4971 12.1624 42.8093 7.47461 37.0518 7.47461C31.2944 7.47461 26.6066 12.1624 26.6066 17.9199V22.9246H26.1576C24.4146 22.9246 23.0016 24.3375 23.0016 26.0806V39.5762H8.67406C6.11227 39.5762 4.03906 41.6627 4.03906 44.2112V62.6192C4.03906 65.1678 6.11227 67.2542 8.67406 67.2542H65.4296C67.9782 67.2542 70.0646 65.181 70.0646 62.6192V44.2112C70.0646 41.6627 67.9914 39.5762 65.4296 39.5762ZM25.6426 26.0806C25.6426 25.7901 25.8803 25.5656 26.1576 25.5656H27.9271H46.1766H47.9461C48.2366 25.5656 48.4611 25.8033 48.4611 26.0806V41.5306C48.4611 41.8211 48.2234 42.0456 47.9461 42.0456H26.1576C25.8671 42.0456 25.6426 41.8079 25.6426 41.5306V26.0806ZM67.4236 62.6192C67.4236 63.7152 66.5257 64.6131 65.4296 64.6131H8.67406C7.57803 64.6131 6.68009 63.7152 6.68009 62.6192V44.2112C6.68009 43.1152 7.57803 42.2173 8.67406 42.2173H23.0808C23.3978 43.6302 24.6522 44.6866 26.1576 44.6866H47.9461C49.4515 44.6866 50.7059 43.6302 51.0229 42.2173H65.4296C66.5257 42.2173 67.4236 43.1152 67.4236 44.2112V62.6192Z" fill="#A2A2A2"/>
<path d="M19.7434 53.859H17.5517L18.6422 51.9667C18.9415 51.4535 18.7598 50.8013 18.2466 50.502C17.7334 50.2026 17.0812 50.3844 16.7819 50.8976L15.6914 52.7899L14.6009 50.8976C14.3015 50.3844 13.6494 50.2133 13.1362 50.502C12.623 50.7907 12.452 51.4535 12.7406 51.9667L13.8311 53.859H11.6394C11.0514 53.859 10.5703 54.3401 10.5703 54.9281C10.5703 55.5162 11.0514 55.9973 11.6394 55.9973H13.8311L12.7406 57.8896C12.4413 58.4028 12.623 59.0549 13.1362 59.3543C13.3073 59.4505 13.489 59.4933 13.6708 59.4933C14.0449 59.4933 14.3978 59.3008 14.6009 58.9587L15.6914 57.0664L16.7819 58.9587C16.985 59.3008 17.3378 59.4933 17.712 59.4933C17.8938 59.4933 18.0755 59.4505 18.2466 59.3543C18.7598 59.0549 18.9308 58.4028 18.6422 57.8896L17.5517 55.9973H19.7434C20.3314 55.9973 20.8125 55.5162 20.8125 54.9281C20.8125 54.3401 20.3314 53.859 19.7434 53.859Z" fill="#A2A2A2"/>
<path d="M33.9748 53.859H31.7832L32.8737 51.9667C33.173 51.4535 32.9913 50.8013 32.4781 50.502C31.9649 50.2026 31.3127 50.3844 31.0134 50.8976L29.9336 52.7899L28.8431 50.8976C28.5437 50.3844 27.8916 50.2133 27.3784 50.502C26.8652 50.8013 26.6941 51.4535 26.9828 51.9667L28.0733 53.859H25.8816C25.2936 53.859 24.8125 54.3401 24.8125 54.9281C24.8125 55.5162 25.2936 55.9973 25.8816 55.9973H28.0733L26.9828 57.8896C26.6835 58.4028 26.8652 59.0549 27.3784 59.3543C27.5494 59.4505 27.7312 59.4933 27.9129 59.4933C28.2871 59.4933 28.6399 59.3008 28.8431 58.9587L29.9336 57.0664L31.0241 58.9587C31.2272 59.3008 31.58 59.4933 31.9542 59.4933C32.136 59.4933 32.3177 59.4505 32.4888 59.3543C33.002 59.0549 33.173 58.4028 32.8843 57.8896L31.7938 55.9973H33.9855C34.5736 55.9973 35.0547 55.5162 35.0547 54.9281C35.0547 54.3401 34.5629 53.859 33.9748 53.859Z" fill="#A2A2A2"/>
<path d="M48.217 53.859H46.0253L47.1158 51.9667C47.4152 51.4535 47.2334 50.8013 46.7203 50.502C46.2071 50.2026 45.5549 50.3844 45.2556 50.8976L44.1758 52.7899L43.0853 50.8976C42.7859 50.3844 42.1338 50.2133 41.6206 50.502C41.1074 50.8013 40.9363 51.4535 41.225 51.9667L42.3155 53.859H40.1238C39.5358 53.859 39.0547 54.3401 39.0547 54.9281C39.0547 55.5162 39.5358 55.9973 40.1238 55.9973H42.3155L41.225 57.8896C40.9256 58.4028 41.1074 59.0549 41.6206 59.3543C41.7916 59.4505 41.9734 59.4933 42.1551 59.4933C42.5293 59.4933 42.8821 59.3008 43.0853 58.9587L44.1758 57.0664L45.2663 58.9587C45.4694 59.3008 45.8222 59.4933 46.1964 59.4933C46.3782 59.4933 46.5599 59.4505 46.731 59.3543C47.2441 59.0549 47.4152 58.4028 47.1265 57.8896L46.036 55.9973H48.2277C48.8157 55.9973 49.2968 55.5162 49.2968 54.9281C49.2968 54.3401 48.805 53.859 48.217 53.859Z" fill="#A2A2A2"/>
<path d="M62.4485 53.859H60.2568L61.3473 51.9667C61.6467 51.4535 61.4649 50.8013 60.9518 50.502C60.4386 50.2026 59.7864 50.3844 59.4871 50.8976L58.3966 52.7899L57.3061 50.8976C57.0067 50.3844 56.3546 50.2133 55.8414 50.502C55.3282 50.8013 55.1571 51.4535 55.4458 51.9667L56.5363 53.859H54.366C53.778 53.859 53.2969 54.3401 53.2969 54.9281C53.2969 55.5162 53.778 55.9973 54.366 55.9973H56.5577L55.4672 57.8896C55.1678 58.4028 55.3496 59.0549 55.8628 59.3543C56.0338 59.4505 56.2156 59.4933 56.3973 59.4933C56.7715 59.4933 57.1243 59.3008 57.3274 58.9587L58.418 57.0664L59.5085 58.9587C59.7116 59.3008 60.0644 59.4933 60.4386 59.4933C60.6203 59.4933 60.8021 59.4505 60.9731 59.3543C61.4863 59.0549 61.6574 58.4028 61.3687 57.8896L60.2782 55.9973H62.4699C63.0579 55.9973 63.539 55.5162 63.539 54.9281C63.539 54.3401 63.0365 53.859 62.4485 53.859Z" fill="#A2A2A2"/>
</svg>
