<svg width="88" height="30" viewBox="0 0 88 30" fill="none" xmlns="http://www.w3.org/2000/svg">
<path d="M25.3461 12.3027C25.3476 11.6239 24.9332 10.9676 24.4241 10.4935C23.6918 9.8124 23.1345 9.28229 22.7516 8.905C22.5407 8.6969 22.4358 8.43403 22.4378 8.11612C22.4442 6.82171 22.4422 5.53292 22.4314 4.24721C22.4273 3.76446 22.3078 3.27429 21.9781 2.90672C21.661 2.55324 21.2378 2.31135 20.7666 2.2361C20.0363 2.11963 19.3043 2.48566 18.8927 3.08769C18.4936 3.67078 18.6006 4.48884 18.5973 5.18609C18.5973 5.27337 18.5648 5.28745 18.5021 5.22704C18.0552 4.8047 17.5425 4.35523 17.127 3.96514C16.0377 2.9423 15.2554 2.21076 14.7827 1.77101C14.6519 1.65019 14.496 1.52631 14.3153 1.40139C13.5441 0.810884 12.4188 0.80986 11.6074 1.26548C11.4267 1.36786 11.1628 1.57699 10.8178 1.89387C10.0995 2.55016 9.38872 3.20876 8.68456 3.87913C7.48818 4.99463 6.29487 6.1068 5.10387 7.21794C4.57172 7.71374 3.96918 8.31603 3.39582 8.84203C3.01469 9.19168 2.63407 9.54184 2.25447 9.89328C1.89202 10.2291 1.49451 10.5465 1.1679 10.9215C0.84001 11.298 0.558449 11.7623 0.562544 12.275C0.566896 12.8643 0.884804 13.4755 1.3998 13.7755C1.80321 13.9856 2.25012 14.0051 2.63509 13.9608C2.81913 13.9393 3.38583 13.7658 3.51996 13.5761C3.60212 13.4607 3.64769 13.4737 3.65639 13.615C3.71475 14.5613 4.07182 15.514 4.58452 16.3049C4.92905 16.8512 5.34294 17.3541 5.82416 17.7854C6.35375 18.26 12.6495 22.2495 12.7803 22.325C13.821 22.9252 15.2219 22.7734 15.6622 21.4995C15.9412 20.4045 15.4643 19.6317 14.6073 19.0358L9.87352 16.0549C8.19772 15.0407 6.98624 13.8349 7.23273 11.6902C7.3625 10.5639 7.8537 9.60481 8.70606 8.81157C9.46218 8.10793 11.2862 6.38989 11.4451 6.2381C11.8572 5.93965 12.3658 5.7638 12.9154 5.7638C13.5028 5.7638 14.0427 5.96525 14.4699 6.30261C14.55 6.37274 14.6288 6.44492 14.7089 6.51813C15.0097 6.78766 15.3105 7.05924 15.6102 7.33082L19.1238 10.4625C20.3993 11.5865 21.2778 12.3777 21.759 12.8369C22.1703 13.2288 22.5893 13.6956 23.1481 13.8707C23.895 14.1049 24.721 13.8083 25.1178 13.1269C25.2757 12.8556 25.3445 12.5773 25.345 12.3029L25.3461 12.3027Z" fill="#FF5B2D"/>
<path d="M18.9421 13.7423C18.0967 13.0753 17.2343 12.4853 16.3907 11.838C15.547 11.1906 14.7451 10.5671 13.895 9.9149C13.2303 9.40502 12.5082 9.11297 11.6886 9.48872C10.9153 9.84323 10.5275 10.4788 10.5813 11.3335C10.6235 12.0043 11.0548 12.473 11.5539 12.8887C11.9131 13.1877 12.3049 13.4587 12.6784 13.7436C13.6987 14.522 14.7361 15.2295 15.7661 16.0161C16.9947 16.9542 18.0711 17.8695 18.3624 19.4744C18.5835 20.6936 18.3672 21.8664 17.7183 22.9404C17.1772 23.8361 16.4946 24.5471 15.5124 25.0266C13.563 25.9785 11.5685 25.8648 9.68182 24.7488C8.95795 24.3206 8.3636 23.6973 7.90772 22.995C7.67403 22.6351 7.4754 22.2527 7.31184 21.8562C7.16287 21.4953 7.09734 21.0809 6.86928 20.7601C6.55802 20.3227 6.08679 19.9405 5.52674 19.9323C4.95543 19.9239 4.4952 20.0821 4.08515 20.506C3.70683 20.8971 3.57219 21.3998 3.57424 21.9488C3.57424 22.0039 3.5919 22.1157 3.60112 22.1741C3.65333 22.504 3.72552 22.8153 3.83302 23.1299C4.01322 23.6577 4.19291 24.1645 4.48317 24.6503C5.2805 25.9859 6.30487 26.9998 7.56396 27.9205C8.7478 28.5653 9.98539 29.1975 11.3328 29.3677C14.9757 29.8282 18.2341 28.5374 20.5521 25.7061C21.2783 24.819 21.7001 23.771 22.0237 22.6735C22.1389 22.2826 22.1798 21.8772 22.2151 21.4528C22.2341 21.2242 22.2592 20.8118 22.2569 20.5889C22.2397 18.9819 21.8998 17.5434 21.1081 16.1763C20.5352 15.187 19.8144 14.4299 18.9429 13.7423H18.9421Z" fill="#FF5B2D"/>
<g clip-path="url(#clip0_6180_61681)">
<path d="M36.008 10.725C36.008 9.78484 36.6931 9.33932 37.612 9.3723C38.6144 9.38878 39.2327 9.9827 39.2828 10.7415H41.8559C41.7052 8.66297 40.0681 7.45898 37.6788 7.45898C35.2895 7.45898 33.5686 8.71243 33.5686 10.791C33.5519 14.9642 39.5667 13.4631 39.5667 15.9538C39.5667 16.7785 38.915 17.356 37.8124 17.356C36.7098 17.356 36.1082 16.7456 36.0414 15.8219H33.5352C33.5686 17.999 35.4398 19.2528 37.8625 19.2528C40.5191 19.2528 41.9895 17.6198 41.9895 15.8054C41.9895 11.7476 36.008 13.0344 36.008 10.725Z" fill="#FF5B2D"/>
<path d="M48.7919 11.897V10.0001H46.7203V7.74023H44.3644V10.0001H43.2617V11.897H44.3644V16.301C44.3644 18.396 45.5508 19.1383 47.3219 19.1383H48.7919V17.1917H47.706C46.9708 17.1917 46.7203 16.9279 46.7203 16.3175V11.897H48.7919Z" fill="#FF5B2D"/>
<path d="M57.1478 9.99996V11.3029C56.5963 10.5444 55.5772 9.85156 54.0901 9.85156C51.7345 9.85156 49.8633 11.6824 49.8633 14.5359C49.8633 17.3894 51.7345 19.2865 54.0734 19.2865C55.5438 19.2865 56.5963 18.5937 57.1478 17.8019V19.1382H59.5037V9.99996H57.1478ZM54.6917 17.2578C53.4387 17.2578 52.2523 16.2679 52.2523 14.5359C52.2523 12.804 53.4387 11.8803 54.6917 11.8803C55.9446 11.8803 57.1478 12.8369 57.1478 14.5689C57.1478 16.3008 55.9784 17.2578 54.6917 17.2578Z" fill="#FF5B2D"/>
<path d="M68.1422 10L65.7195 16.3836L63.3302 10H60.707L64.4161 18.9074L62.4113 23.4598H64.9008L70.6314 10H68.1422Z" fill="#FF5B2D"/>
<path d="M74.2022 11.4178V9.99909H71.8633V19.1373H74.2022V14.5845C74.2022 12.8196 75.0376 12.292 76.4245 12.292H77.0428V9.86719C75.7561 9.86719 74.787 10.4776 74.2022 11.4178Z" fill="#FF5B2D"/>
<path d="M82.7811 9.85156C80.1079 9.85156 78.0195 11.6824 78.0195 14.5689C78.0195 17.4553 80.0411 19.2865 82.7143 19.2865C85.3876 19.2865 87.5431 17.4392 87.5431 14.5689C87.5431 11.6986 85.4544 9.85156 82.7811 9.85156ZM82.7143 17.2743C81.4614 17.2743 80.3918 16.3836 80.3918 14.5689C80.3918 12.7542 81.5115 11.8638 82.7477 11.8638C83.984 11.8638 85.137 12.738 85.137 14.5689C85.137 16.3998 83.9509 17.2743 82.7143 17.2743Z" fill="#FF5B2D"/>
</g>
<defs>
<clipPath id="clip0_6180_61681">
<rect width="54" height="18" fill="white" transform="translate(33.3477 6.19922)"/>
</clipPath>
</defs>
</svg>
