<svg width="17" height="17" viewBox="0 0 17 17" fill="none" xmlns="http://www.w3.org/2000/svg">
<path d="M14.9063 7.18945C14.9063 11.8561 8.90625 15.8561 8.90625 15.8561C8.90625 15.8561 2.90625 11.8561 2.90625 7.18945C2.90625 5.59815 3.53839 4.07203 4.66361 2.94681C5.78883 1.82159 7.31495 1.18945 8.90625 1.18945C10.4975 1.18945 12.0237 1.82159 13.1489 2.94681C14.2741 4.07203 14.9063 5.59815 14.9063 7.18945Z" stroke="#FF5B2D" stroke-width="1.2" stroke-linecap="round" stroke-linejoin="round"/>
<path d="M8.90625 9.18945C10.0108 9.18945 10.9062 8.29402 10.9062 7.18945C10.9062 6.08488 10.0108 5.18945 8.90625 5.18945C7.80168 5.18945 6.90625 6.08488 6.90625 7.18945C6.90625 8.29402 7.80168 9.18945 8.90625 9.18945Z" stroke="#FF5B2D" stroke-width="1.2" stroke-linecap="round" stroke-linejoin="round"/>
</svg>
