<svg width="24" height="17" viewBox="0 0 24 17" fill="none" xmlns="http://www.w3.org/2000/svg">
<mask id="mask0_5600_61786" style="mask-type:luminance" maskUnits="userSpaceOnUse" x="0" y="0" width="25" height="17">
<path d="M0.0078125 0.558594H24.0599V16.5586H0.0078125V0.558594Z" fill="white"/>
</mask>
<g mask="url(#mask0_5600_61786)">
<path fill-rule="evenodd" clip-rule="evenodd" d="M-1.49609 0.558594H25.5651V16.5586H-1.49609V0.558594Z" fill="#006C35"/>
<path fill-rule="evenodd" clip-rule="evenodd" d="M7.07966 6.18993C7.05875 6.50324 7.02738 7.05154 7.29663 7.10898C7.61816 7.14031 7.4404 6.56591 7.55804 6.46147C7.57895 6.40925 7.61816 6.40925 7.62078 6.47452V6.96277C7.62078 7.11943 7.72534 7.16642 7.80376 7.19775C7.88741 7.19253 7.94492 7.19775 7.97629 7.27608L8.01812 8.11942C8.01812 8.11942 8.21156 8.17686 8.22202 7.64684C8.22986 7.33352 8.15928 7.07504 8.2011 7.01499C8.2011 6.95494 8.27953 6.95233 8.33181 6.98105C8.41546 7.03849 8.45206 7.11159 8.58276 7.08548C8.78143 7.02804 8.90168 6.93144 8.9043 6.78C8.90037 6.63118 8.86937 6.48432 8.8128 6.34659C8.82326 6.32048 8.77621 6.24998 8.78666 6.22387C8.82065 6.28131 8.87554 6.27609 8.886 6.22387C8.85201 6.11421 8.79973 6.00716 8.71608 5.96278C8.6455 5.90012 8.54094 5.91056 8.50695 6.04111C8.48604 6.18993 8.55924 6.36486 8.66641 6.51108C8.68994 6.56591 8.72131 6.6599 8.70824 6.74345C8.65073 6.77739 8.59322 6.76173 8.54355 6.71212C8.54355 6.71212 8.38671 6.59463 8.38671 6.56591C8.42853 6.29959 8.39455 6.26826 8.37102 6.19254C8.35534 6.09071 8.30567 6.05677 8.26646 5.98889C8.22725 5.94711 8.17496 5.94711 8.14882 5.98889C8.07824 6.10899 8.11223 6.36747 8.16189 6.48497C8.19849 6.59202 8.25339 6.6599 8.22725 6.6599C8.20633 6.71995 8.16189 6.70429 8.12791 6.63379C8.08965 6.48543 8.0712 6.33268 8.07301 6.17949C8.05994 6.05938 8.04426 5.80351 7.96322 5.73563C7.91617 5.67296 7.84559 5.70429 7.81945 5.76174C7.81254 5.87838 7.81517 5.99539 7.82729 6.1116C7.87957 6.30481 7.89787 6.47713 7.92401 6.67295C7.93185 6.93666 7.77239 6.78784 7.78024 6.65468C7.81453 6.48728 7.81185 6.31442 7.77239 6.14815C7.74625 6.08027 7.7175 6.0646 7.65214 6.07505C7.60248 6.07505 7.47439 6.21343 7.43779 6.44841C7.43779 6.44841 7.40642 6.56852 7.39335 6.67557C7.37505 6.79567 7.29663 6.88444 7.23912 6.6599C7.19206 6.49541 7.16069 6.09594 7.08227 6.18993H7.07966Z" fill="#1A1A1A"/>
<path fill-rule="evenodd" clip-rule="evenodd" d="M7.9537 7.47121L7.11719 7.87378C7.12503 7.68295 7.51192 7.3405 7.77855 7.33789C7.94847 7.3405 7.90664 7.40324 7.95108 7.47121H7.9537Z" fill="#1A1A1A"/>
<path fill-rule="evenodd" clip-rule="evenodd" d="M7.80645 7.73327C7.36728 8.86903 8.83902 9.0283 9.00371 7.78027C9.01939 7.72805 9.08213 7.67844 9.09259 7.76199C9.0586 8.89253 7.95284 8.96825 7.76463 8.61316C7.72035 8.49098 7.69822 8.3619 7.69927 8.23196C7.67313 8.01003 7.5555 8.09619 7.5372 8.31551C7.5189 8.43823 7.52413 8.47217 7.52413 8.58966C7.58164 9.4826 9.00632 9.09879 9.23898 8.36251C9.36184 7.9552 9.21806 7.65494 9.28342 7.65494C9.42458 7.80638 9.62325 7.67583 9.66769 7.62361C9.68599 7.5975 9.73304 7.57923 9.76441 7.61317C9.8742 7.6915 10.0676 7.65494 10.1095 7.51656C10.133 7.37818 10.1513 7.23719 10.1565 7.09359C10.065 7.1197 9.99968 7.13798 9.99183 7.17714L9.97354 7.29724C9.96569 7.33641 9.88989 7.33641 9.88466 7.2868C9.85067 7.13014 9.70951 7.11187 9.62325 7.35207C9.56835 7.39907 9.46379 7.40951 9.45333 7.33902C9.4664 7.17714 9.40105 7.15625 9.27034 7.23197L9.14487 6.28681C9.19715 6.28681 9.24943 6.32597 9.2991 6.26331C9.24682 6.0936 9.12918 5.74895 9.06383 5.72284C9.03508 5.68629 9.00894 5.70979 8.96711 5.72023C8.89914 5.74112 8.8364 5.79856 8.85732 5.91344C8.93574 6.4043 8.98802 6.77767 9.06906 7.27113C9.08213 7.32596 9.03508 7.40168 8.97234 7.39385C8.86777 7.32335 8.84163 7.17975 8.65865 7.18497C8.52794 7.18497 8.38155 7.32857 8.36325 7.46434C8.33973 7.574 8.33188 7.6915 8.36325 7.78549C8.45475 7.89515 8.56454 7.88471 8.66126 7.86121C8.73968 7.82726 8.80504 7.74894 8.83379 7.76721C8.85209 7.79071 8.8364 8.05181 8.45998 8.25024C8.23255 8.35468 8.04956 8.37556 7.95284 8.19019C7.89272 8.07269 7.95807 7.63144 7.80645 7.73327Z" fill="#1A1A1A"/>
<path fill-rule="evenodd" clip-rule="evenodd" d="M9.68013 6.57905C9.76639 6.54771 10.1847 6.0673 10.1847 6.0673L10.1219 6.01508C10.0984 5.99681 10.101 5.97592 10.1219 5.95764C10.2265 5.89498 10.1925 5.76443 10.1402 5.70177C10.1047 5.68449 10.0657 5.67572 10.0262 5.67618C9.9867 5.67663 9.94787 5.68629 9.91278 5.70438C9.83959 5.77488 9.8239 5.88715 9.88142 5.95503C9.93631 5.98114 9.99121 6.03858 9.95461 6.06991C9.78208 6.25268 9.31416 6.5686 9.36905 6.57905C9.37951 6.59471 9.66967 6.59471 9.67752 6.57905H9.68013ZM7.14446 8.27616C6.98761 8.52681 6.97454 8.90017 7.06081 9.01244C7.10786 9.06466 7.18367 9.08816 7.23856 9.06989C7.3379 9.02811 7.38234 8.82707 7.35881 8.75657C7.32483 8.70435 7.29869 8.69652 7.26471 8.7383C7.19674 8.87929 7.16798 8.78268 7.16014 8.70435C7.15265 8.5717 7.15966 8.43863 7.18105 8.30749C7.19935 8.19783 7.18105 8.22916 7.14446 8.27616ZM13.8653 7.87668C13.7137 7.54771 13.5019 7.22395 13.4366 7.10123C13.2329 6.77958 13.0166 6.46602 12.7883 6.1613C12.6262 5.96809 13.0549 6.24223 12.736 5.85581L12.5034 5.65999C12.4511 5.62344 12.3256 5.55556 12.3047 5.66522C12.2942 5.76443 12.2995 5.81665 12.3151 5.89759C12.3282 5.94981 12.4066 6.04119 12.4458 6.09341C12.9818 6.8024 13.4525 7.55829 13.8522 8.35188C13.9202 8.31793 13.9045 7.93151 13.8653 7.87668Z" fill="#1A1A1A"/>
<path fill-rule="evenodd" clip-rule="evenodd" d="M13.197 8.96679C13.1656 9.00073 13.2702 9.14434 13.4061 9.14434C13.6309 9.11823 13.8296 8.9929 14.0126 8.6587C14.087 8.54753 14.1344 8.42059 14.1512 8.28795C14.1733 7.65412 14.1224 7.01985 13.9995 6.39762C13.9917 6.3454 13.9995 6.28274 14.0048 6.26708C14.0204 6.2488 14.0701 6.26708 14.0963 6.22269C14.1355 6.18353 13.9917 5.85716 13.9133 5.73444C13.8871 5.677 13.8741 5.64045 13.827 5.73967C13.7702 5.84914 13.7432 5.97158 13.7486 6.09475C13.8558 6.83887 13.8897 7.489 13.9577 8.23312C13.9656 8.30622 13.9551 8.41066 13.9054 8.45244C13.7082 8.67179 13.4668 8.84707 13.197 8.96679ZM16.2424 8.96418C16.0804 9.05817 16.0804 9.16522 16.2111 9.16783C16.4359 9.14173 16.7025 9.12345 16.8855 8.84669C16.9501 8.71633 16.9875 8.57419 16.9953 8.42894C17.0282 7.80487 16.987 7.1791 16.8724 6.56472C16.8672 6.5125 16.8437 6.38979 16.8515 6.37412C16.8672 6.33757 16.9404 6.37674 16.9665 6.33496C17.0031 6.2958 16.7757 6.00337 16.6947 5.87805C16.6685 5.8206 16.6581 5.78405 16.6084 5.88327C16.5558 5.99375 16.5393 6.118 16.5613 6.23836C16.6816 7.04775 16.7705 7.65349 16.7888 8.36889C16.7783 8.43677 16.7757 8.47332 16.7443 8.55948C16.6738 8.64826 16.5953 8.76314 16.5221 8.81797C16.4489 8.87019 16.2921 8.92241 16.2424 8.96418Z" fill="#1A1A1A"/>
<path fill-rule="evenodd" clip-rule="evenodd" d="M16.364 8.24259C16.364 8.05199 16.3667 7.89012 16.3614 7.74651C16.3597 7.6249 16.333 7.50492 16.283 7.39404C16.2359 7.28699 16.2647 7.20083 16.2412 7.08594C16.2203 6.97106 16.2255 6.79874 16.1941 6.66558C16.1837 6.61336 16.1575 6.44365 16.1654 6.42538C16.1784 6.38882 16.2281 6.42538 16.2542 6.3836C16.2908 6.34444 16.1235 5.91363 16.0399 5.79092C16.0111 5.73609 15.9536 5.75436 15.8883 5.84314C15.8229 5.90319 15.8464 6.03635 15.8726 6.16428C16.032 7.00762 16.1549 7.77262 16.1288 8.57418C16.1183 8.64207 16.364 8.37053 16.364 8.24259ZM15.1694 7.19822C15.0674 7.19299 14.8557 6.99717 14.793 6.8849C14.7827 6.85746 14.7783 6.82817 14.7801 6.79894C14.7819 6.7697 14.7899 6.74117 14.8034 6.71519C14.8426 6.68908 14.9001 6.66297 14.9446 6.68908C14.9446 6.68908 14.989 6.75174 14.9812 6.75958C15.0335 6.78569 15.0596 6.77263 15.0648 6.74913C15.0674 6.70997 15.0491 6.68647 15.0491 6.6447C15.0727 6.52459 15.206 6.50632 15.2583 6.58203C15.2949 6.62903 15.3106 6.72563 15.3132 6.79091C15.3132 6.82485 15.2609 6.78569 15.2269 6.79091C15.1982 6.80135 15.1903 6.83791 15.1877 6.86924C15.1825 6.9554 15.172 7.09378 15.1694 7.1956V7.19822ZM13.2925 8.45147C13.3186 8.1956 13.282 7.73868 13.2794 7.58725C13.2654 7.19779 13.2331 6.8092 13.1827 6.42277C13.1513 6.20345 13.2716 6.44626 13.2559 6.31833C13.2167 6.10162 13.0964 5.9528 12.9526 5.75697C12.9082 5.6917 12.9082 5.67865 12.8376 5.77264C12.7592 5.94757 12.8272 6.07029 12.8481 6.20867C12.95 6.65775 13.0102 7.07028 13.0389 7.4802C13.069 7.90602 13.0725 8.3333 13.0494 8.75956C13.1278 8.76217 13.248 8.63685 13.2925 8.45147Z" fill="#1A1A1A"/>
<path fill-rule="evenodd" clip-rule="evenodd" d="M16.7123 8.04005C16.5319 7.73718 16.2626 7.41343 16.1894 7.29071C15.9471 6.95262 15.6924 6.62342 15.4261 6.30378C15.2039 6.06879 15.5307 6.26461 15.3843 6.08185C15.2614 5.94869 15.2275 5.9043 15.1203 5.82336C15.068 5.78942 15.0366 5.72415 15.0157 5.83642C15.0074 5.93366 15.0056 6.03136 15.0105 6.12884C15.0105 6.17323 15.0575 6.25939 15.0994 6.31161C15.6405 6.9774 16.2339 7.65624 16.7097 8.51002C16.7776 8.47608 16.7541 8.09227 16.7097 8.04005H16.7123Z" fill="#1A1A1A"/>
<path fill-rule="evenodd" clip-rule="evenodd" d="M8.57268 7.48393C8.55961 7.50746 8.53085 7.53621 8.54131 7.56497C8.55961 7.59111 8.5779 7.59895 8.60927 7.59895C8.63803 7.59895 8.67985 7.60679 8.6877 7.59111C8.70338 7.57281 8.71384 7.53883 8.70338 7.50484C8.67201 7.42642 8.58836 7.45779 8.57268 7.48393Z" fill="#006C35"/>
<path fill-rule="evenodd" clip-rule="evenodd" d="M14.6253 11.8656C14.8658 11.876 15.0226 11.8786 15.2344 11.9021L15.4853 11.876C15.7624 11.8499 15.7729 12.2703 15.7729 12.2703C15.7729 12.5183 15.6761 12.5314 15.5533 12.5575C15.4827 12.5679 15.4487 12.5157 15.4095 12.4635C15.3504 12.4824 15.2874 12.486 15.2265 12.4739C15.1246 12.4687 15.0252 12.4687 14.9259 12.4609C14.8213 12.453 14.7638 12.4739 14.6566 12.4635C14.6357 12.4974 14.6044 12.5444 14.5416 12.5314C14.4893 12.5235 14.424 12.3747 14.4423 12.2572C14.4815 12.1737 14.4684 12.2024 14.4684 12.1658C13.4855 12.1397 12.4948 12.0953 11.5328 12.1084C10.7799 12.111 10.0375 12.1423 9.29252 12.1737C8.89518 12.1684 8.59194 12.1058 8.38281 11.8003C8.40373 11.8003 9.39708 11.8551 9.68725 11.8369C10.2231 11.8316 10.7146 11.7872 11.2609 11.7716C12.3379 11.7899 13.4071 11.7899 14.4841 11.8656C14.3795 11.7951 14.3795 11.6306 14.5364 11.5888C14.5495 11.5784 14.5573 11.6698 14.5808 11.6671C14.7089 11.6593 14.6514 11.8316 14.6253 11.8656ZM10.2963 5.93351C10.1343 6.39826 10.3904 6.91 10.5682 6.86039C10.6989 6.91261 10.7773 6.66718 10.8296 6.40087C10.8688 6.32515 10.895 6.31732 10.9133 6.35648C10.908 6.71157 10.9394 6.79251 11.0309 6.89956C11.2348 7.05622 11.4047 6.92045 11.4178 6.90739L11.5746 6.74812C11.6112 6.70896 11.6583 6.70896 11.7079 6.74029C11.7576 6.78468 11.7498 6.86039 11.8543 6.91261C11.9432 6.94917 12.1288 6.92306 12.1733 6.84734C12.2308 6.74551 12.2464 6.71157 12.2726 6.67502C12.3144 6.62019 12.385 6.64369 12.385 6.66196C12.3772 6.69329 12.3353 6.72201 12.3641 6.77946C12.4164 6.81601 12.4268 6.79251 12.4556 6.78468C12.5601 6.73246 12.6386 6.50792 12.6386 6.50792C12.6412 6.42437 12.5941 6.42959 12.5628 6.45048L12.4817 6.50531C12.4294 6.51314 12.3327 6.54708 12.283 6.47136C12.2334 6.38259 12.2334 6.25466 12.1968 6.16327C12.1968 6.15805 12.1288 6.01967 12.1915 6.01184C12.2229 6.01706 12.2883 6.03534 12.2987 5.98051C12.3301 5.92568 12.2308 5.77163 12.1602 5.6933C12.1001 5.62803 12.0164 5.6202 11.9354 5.68808C11.8779 5.7403 11.8857 5.79774 11.8752 5.85257C11.8653 5.89186 11.8649 5.93295 11.874 5.97244C11.8831 6.01193 11.9014 6.0487 11.9275 6.07972C11.985 6.18938 12.087 6.33298 12.053 6.53664C12.053 6.53664 11.9929 6.63063 11.8883 6.61758C11.8439 6.60974 11.7733 6.59147 11.7367 6.30949C11.7079 6.10061 11.7419 5.80296 11.653 5.66458C11.6191 5.57842 11.5955 5.49748 11.5171 5.64108C11.4962 5.69852 11.4047 5.78469 11.4701 5.95962C11.5319 6.11726 11.55 6.28865 11.5223 6.4557C11.4831 6.51314 11.4753 6.53142 11.4256 6.58625C11.3577 6.66457 11.2818 6.64369 11.2243 6.61497C11.1721 6.58102 11.1302 6.56275 11.1041 6.44525C11.1093 6.26249 11.1198 5.96223 11.0858 5.89957C11.0361 5.80035 10.9551 5.8369 10.9211 5.86824C10.7656 6.04078 10.6615 6.2533 10.6205 6.48181C10.5734 6.63324 10.5238 6.58886 10.4898 6.5288C10.4061 6.45048 10.3983 5.83168 10.2963 5.93351Z" fill="#1A1A1A"/>
<path fill-rule="evenodd" clip-rule="evenodd" d="M10.7906 6.94661C10.8665 6.89439 10.8325 6.85784 10.9423 6.9675C11.084 7.21794 11.1663 7.49752 11.1828 7.78472C11.1775 7.85261 11.2246 7.89438 11.2481 7.87872C11.2586 7.72206 11.6428 7.50274 11.9957 7.47141C12.048 7.45836 12.0219 7.35653 12.0297 7.30431C12.0088 7.10849 12.1395 6.93095 12.3225 6.91789C12.5735 6.95444 12.6571 7.0876 12.6623 7.28864C12.6336 7.68029 12.2258 7.74556 11.9984 7.77689C11.9644 7.78995 11.9487 7.80561 11.9984 7.82389L12.9551 7.82911L13.0048 7.85522C13.01 7.88133 12.9891 7.86044 12.9525 7.9231C12.8999 8.01545 12.8669 8.11768 12.8558 8.22336C12.5708 8.31736 12.2755 8.35391 11.9774 8.39307C11.8729 8.44529 11.8206 8.51579 11.8415 8.59412C11.8781 8.68028 12.1081 8.76905 12.1081 8.77166C12.1526 8.79777 12.2023 8.86304 12.0951 8.9962C11.6298 8.97531 11.2664 8.77688 11.1409 8.49751C11.1043 8.46879 11.0625 8.49751 11.0364 8.53406C10.8534 8.76905 10.6756 8.97792 10.3645 9.09281C10.1816 9.1398 9.99073 9.06409 9.90185 8.94398C9.84173 8.87349 9.84434 8.79777 9.82343 8.7821C9.72148 8.82649 8.85883 9.19202 8.96862 9.0197C9.17775 8.79777 9.54372 8.63067 9.86264 8.41135C9.88617 8.33563 9.92799 8.08498 10.0535 8.00404C10.0613 8.00404 10.0352 8.15026 10.0378 8.21292C10.0378 8.26514 10.0326 8.28341 10.043 8.27036C10.0665 8.2573 10.4534 7.95182 10.4874 7.85783C10.524 7.80561 10.4953 7.66984 10.4953 7.66462C10.4221 7.47663 10.3201 7.46097 10.2835 7.36697C10.2495 7.24426 10.2652 7.10327 10.3358 7.06149C10.3985 7.00666 10.4717 7.01188 10.5423 7.07455C10.6207 7.14504 10.6887 7.28342 10.7096 7.38525C10.6965 7.42441 10.605 7.35914 10.5789 7.37742C10.6292 7.43517 10.6627 7.50562 10.6756 7.58107C10.7279 7.79517 10.7122 7.87872 10.6599 8.0171C10.4874 8.38002 10.2678 8.48707 10.0744 8.62284C10.0692 8.62284 10.0665 8.71422 10.1371 8.76383C10.1633 8.78994 10.2652 8.80299 10.3828 8.76383C10.6342 8.62443 10.8374 8.41236 10.9658 8.15548C10.988 7.96001 10.9666 7.76206 10.9031 7.57585C10.8272 7.40092 10.7384 7.15288 10.7384 7.14765C10.7357 7.03799 10.7436 7.00144 10.7906 6.94661ZM8.28634 5.93879C8.39613 5.99101 8.60526 5.96751 8.5948 5.78996L8.58958 5.70902C8.56866 5.6568 8.50593 5.66986 8.49285 5.72208C8.48763 5.74036 8.5007 5.76908 8.48501 5.77691C8.47456 5.78735 8.44057 5.78213 8.44057 5.73252C8.44057 5.71686 8.43012 5.70119 8.42227 5.69075C8.41705 5.68553 8.41182 5.68553 8.39875 5.68553C8.38306 5.68553 8.38306 5.68814 8.37522 5.70119C8.37261 5.71425 8.36738 5.7273 8.36738 5.74297C8.36738 5.76124 8.35692 5.76646 8.34647 5.76908C8.33078 5.76908 8.33339 5.76908 8.32032 5.76385C8.3151 5.75602 8.30725 5.75341 8.30725 5.73774L8.29941 5.69597C8.29418 5.68814 8.28373 5.68291 8.27327 5.6803C8.21315 5.6803 8.20792 5.7508 8.21315 5.77691C8.20792 5.78213 8.2053 5.90484 8.28634 5.93879Z" fill="#1A1A1A"/>
<path fill-rule="evenodd" clip-rule="evenodd" d="M11.5142 7.301C11.624 7.35322 11.888 7.3245 11.8227 7.15479L11.8175 7.07124C11.7939 7.01902 11.7338 7.03207 11.7207 7.0869C11.7155 7.10257 11.7286 7.13129 11.7103 7.13912C11.7024 7.14957 11.6658 7.14434 11.6685 7.09735C11.6685 7.08168 11.658 7.0634 11.6502 7.05296C11.6423 7.05035 11.6397 7.04774 11.624 7.04774C11.6109 7.04774 11.6109 7.05296 11.6031 7.06602C11.5979 7.07907 11.5953 7.09212 11.5953 7.10779C11.5926 7.12346 11.5848 7.12868 11.5717 7.1339C11.5587 7.1339 11.5613 7.1339 11.5508 7.12607C11.543 7.11823 11.5351 7.11562 11.5351 7.10257L11.5273 7.06079C11.5221 7.05296 11.5116 7.04774 11.5011 7.04513C11.441 7.04513 11.4358 7.11301 11.4384 7.13912C11.4358 7.14434 11.4332 7.26967 11.5168 7.301H11.5142ZM13.3964 6.73704C13.5062 6.78926 13.7127 6.76576 13.7048 6.59082L13.6996 6.50727C13.6761 6.45505 13.616 6.46811 13.6029 6.52033C13.5977 6.5386 13.6107 6.56732 13.5924 6.57777C13.5846 6.5856 13.548 6.58038 13.5506 6.53077C13.5506 6.51511 13.5401 6.49944 13.5323 6.489C13.5245 6.48377 13.5218 6.48377 13.5062 6.48377C13.4931 6.48377 13.4931 6.489 13.4852 6.50205L13.4774 6.54122C13.4748 6.55949 13.4669 6.56733 13.4539 6.56733C13.4408 6.56733 13.4434 6.56732 13.433 6.5621C13.4251 6.55427 13.4173 6.55166 13.4173 6.5386C13.4173 6.52555 13.4147 6.50466 13.4094 6.49422C13.4042 6.48639 13.3938 6.48377 13.3833 6.48116C13.3232 6.48116 13.3179 6.54905 13.3206 6.57516C13.3179 6.58038 13.3153 6.70309 13.399 6.73704H13.3964ZM14.3714 8.15478C14.1806 8.37149 14.2642 8.72919 14.3087 8.80751C14.3714 8.93284 14.4211 9.01378 14.544 9.07644C14.6564 9.15738 14.7452 9.10777 14.7923 9.05033C14.9047 8.93284 14.9073 8.63258 14.9596 8.57514C14.9962 8.46548 15.0903 8.48376 15.1347 8.53337C15.1763 8.59231 15.232 8.63989 15.2968 8.67175C15.4014 8.76313 15.5269 8.7814 15.6523 8.69785C15.736 8.64825 15.7909 8.5882 15.8405 8.46548C15.8928 8.31927 15.8667 7.64042 15.8536 7.23834L15.7438 6.67698C15.7438 6.67176 15.7308 6.41067 15.7177 6.35062C15.7177 6.32451 15.7098 6.31667 15.736 6.31929C15.7647 6.34539 15.7674 6.34539 15.7883 6.35323C15.8144 6.35845 15.8405 6.30884 15.8222 6.26707L15.5608 5.78143C15.5399 5.76054 15.5112 5.73966 15.4772 5.78665C15.4571 5.80478 15.4412 5.82696 15.4304 5.85172C15.4195 5.87647 15.4141 5.90325 15.4144 5.93025C15.4223 6.04514 15.4406 6.16263 15.4484 6.27751L15.553 6.86758C15.587 7.28533 15.5948 7.62998 15.6288 8.05034C15.6236 8.22788 15.5687 8.38193 15.5164 8.40543C15.5164 8.40543 15.438 8.44982 15.3857 8.40021C15.3465 8.38454 15.1923 8.14172 15.1923 8.14172C15.1138 8.07123 15.0615 8.0895 15.0067 8.14172C14.8498 8.29316 14.7818 8.56992 14.6747 8.76313C14.6485 8.80751 14.5701 8.84146 14.4864 8.76052C14.2721 8.46548 14.3976 8.04773 14.3714 8.15478ZM13.446 5.70832C13.5454 5.74749 13.6133 5.94853 13.5924 6.04775C13.5715 6.16524 13.5192 6.29579 13.4826 6.28012C13.4408 6.26446 13.5088 6.16002 13.4696 6.05036C13.4486 5.97725 13.3127 5.8467 13.3284 5.81015C13.3023 5.72921 13.3859 5.69266 13.446 5.70571V5.70832Z" fill="#1A1A1A"/>
<path fill-rule="evenodd" clip-rule="evenodd" d="M14.6884 8.27516C14.7067 8.03495 14.6727 7.88874 14.6675 7.74775C14.6623 7.60676 14.508 6.53105 14.4767 6.42661C14.4375 6.22296 14.6257 6.4005 14.6048 6.2804C14.5394 6.13419 14.3799 5.91748 14.3303 5.78954C14.2989 5.73732 14.312 5.6851 14.244 5.77649C14.1855 5.93671 14.1649 6.10829 14.1839 6.27779C14.346 7.12112 14.5106 7.82085 14.4845 8.62241C14.5629 8.62241 14.6492 8.44748 14.6884 8.27516ZM16.3719 6.04802C16.4634 6.09241 16.5157 6.34306 16.5052 6.41356C16.4869 6.5441 16.4399 6.68509 16.4059 6.66682C16.3667 6.65115 16.4137 6.47361 16.3954 6.41878C16.3745 6.34045 16.2516 6.19946 16.2647 6.15768C16.2386 6.06891 16.317 6.03236 16.3719 6.04802ZM9.68764 7.82085C9.77391 7.8548 9.82619 8.03756 9.81835 8.08978C9.79744 8.18639 9.753 8.29082 9.71901 8.27516C9.68503 8.26472 9.72685 8.13417 9.71117 8.09239C9.70333 7.99579 9.58308 7.94357 9.58569 7.90179C9.56478 7.82347 9.63798 7.81041 9.69026 7.82085H9.68764Z" fill="#1A1A1A"/>
<path fill-rule="evenodd" clip-rule="evenodd" d="M11.7703 8.09784C11.8801 8.10306 11.935 8.19194 11.833 8.22854C11.7285 8.26252 11.6317 8.29128 11.6291 8.43767C11.6683 8.6468 11.5768 8.5736 11.5246 8.54746C11.4618 8.50041 11.2841 8.39061 11.2579 8.15535C11.2553 8.10045 11.2997 8.05078 11.3703 8.05078C11.4749 8.07954 11.6317 8.08215 11.7703 8.09784Z" fill="#006C35"/>
<path fill-rule="evenodd" clip-rule="evenodd" d="M7.39152 5.64869C7.517 5.68524 7.52484 5.87323 7.517 5.92806C7.4987 6.02728 7.45426 6.13433 7.42289 6.12127C7.38629 6.10822 7.42289 5.97245 7.40459 5.93067C7.38629 5.87323 7.27911 5.76357 7.28957 5.73224C7.26604 5.66697 7.34185 5.63564 7.39152 5.64869ZM9.89844 6.52597C9.7991 6.57819 9.76251 6.73484 9.82263 6.82884C9.88014 6.90717 9.96902 6.87844 9.97948 6.87844C10.0762 6.88889 10.1337 6.69829 10.1337 6.69829C10.1337 6.69829 10.1363 6.64607 10.0239 6.7479C9.97425 6.75573 9.97163 6.73745 9.95856 6.71134C9.9466 6.66164 9.95118 6.60939 9.97163 6.56252C9.98993 6.51552 9.95334 6.49464 9.89844 6.52597ZM10.6304 5.57558C10.5781 5.60953 10.4814 5.71135 10.4788 5.82623C10.4762 5.89151 10.4631 5.89151 10.5049 5.93067C10.5389 5.97767 10.5676 5.97506 10.6304 5.94112C10.646 5.93129 10.6594 5.91832 10.6698 5.90304C10.6801 5.88776 10.6872 5.87049 10.6905 5.85234C10.7062 5.77924 10.6121 5.8889 10.6016 5.80535C10.5807 5.72702 10.6408 5.69569 10.6984 5.62258C10.6984 5.57036 10.6984 5.53642 10.6278 5.57558H10.6304ZM11.2159 5.68002C11.1929 5.7751 11.1789 5.87213 11.1741 5.96984C11.1584 6.04294 11.2525 6.07427 11.2918 5.98028C11.3545 5.81057 11.3545 5.73746 11.3597 5.66697C11.3414 5.5547 11.2656 5.55731 11.2159 5.68002ZM14.928 7.56773C14.9384 7.55468 15.4508 7.19176 15.4508 7.19176C15.5031 7.17348 15.49 7.37975 15.4665 7.37714C15.3076 7.53009 15.1248 7.65619 14.9253 7.7505C14.8992 7.76878 14.8757 7.61212 14.9253 7.56773H14.928ZM15.3907 7.56251C15.4821 7.6069 15.5187 7.8706 15.5083 7.9411C15.5083 8.08209 15.422 8.19175 15.3854 8.17608C15.3488 8.15781 15.3907 8.00115 15.3724 7.94632C15.3514 7.86799 15.2756 7.72439 15.2887 7.68262C15.2626 7.59384 15.3358 7.54685 15.3933 7.56251H15.3907ZM12.3583 8.69566C12.4007 8.64623 12.45 8.60314 12.5047 8.56772C12.557 8.54162 12.604 8.58861 12.6014 8.586C12.6093 8.63822 12.57 8.68261 12.5831 8.75049C12.5936 8.7766 12.6014 8.80793 12.6511 8.79749C12.7321 8.73221 12.8079 8.72699 12.8864 8.72438C12.9517 8.72699 12.9543 8.83404 12.9125 8.83404C12.7635 8.86537 12.6981 8.90715 12.591 8.94631C12.5387 8.97764 12.4969 8.93848 12.4969 8.93587C12.4969 8.93326 12.4681 8.90715 12.4864 8.83926C12.4916 8.78704 12.4707 8.75571 12.4237 8.76094C12.3923 8.78182 12.3609 8.79227 12.3452 8.7531C12.3374 8.72699 12.3348 8.71133 12.3583 8.69566ZM15.9292 8.83665C15.9501 8.86276 15.9658 8.88887 15.9265 8.93587L15.8298 9.01942C15.8141 9.04553 15.8037 9.09252 15.856 9.10558C15.9501 9.13169 16.1697 8.98809 16.1697 8.98548C16.2063 8.95937 16.1958 8.90715 16.1906 8.90715C16.1697 8.88365 16.1226 8.89931 16.0912 8.89409C16.0755 8.89409 16.0259 8.88887 16.0494 8.84187C16.067 8.8188 16.0811 8.7933 16.0912 8.76616C16.1043 8.73483 16.0912 8.71394 16.0389 8.69566C15.9841 8.68522 15.9605 8.69044 15.9004 8.69566C15.869 8.70088 15.8586 8.71655 15.8507 8.75571C15.8533 8.81576 15.8899 8.81315 15.9292 8.83404V8.83665Z" fill="#1A1A1A"/>
<path fill-rule="evenodd" clip-rule="evenodd" d="M12.374 7.35302C12.3609 7.37913 12.3138 7.37913 12.2694 7.35302C12.2249 7.32691 12.1988 7.28513 12.2145 7.26164C12.2302 7.23814 12.2746 7.23814 12.3191 7.26164C12.3635 7.28513 12.387 7.32952 12.374 7.35302ZM10.0474 5.95355C10.0213 5.96139 9.98467 5.93789 9.96899 5.90134C9.9533 5.86478 9.96114 5.83345 9.98728 5.82562C10.0134 5.81778 10.0474 5.84389 10.0657 5.87784C10.084 5.91178 10.0735 5.94833 10.0448 5.95616L10.0474 5.95355Z" fill="#006C35"/>
<path fill-rule="evenodd" clip-rule="evenodd" d="M14.6521 12.1914C14.8979 12.2019 15.1279 12.1914 15.371 12.2045C15.4155 12.2437 15.3841 12.3352 15.3553 12.33L15.1514 12.3221C15.1488 12.2437 14.9502 12.2568 14.9554 12.3247C14.8482 12.3378 14.7515 12.3221 14.6417 12.3169C14.6103 12.2777 14.6156 12.2071 14.6521 12.1914Z" fill="#006C35"/>
</g>
</svg>
