<svg width="88" height="30" viewBox="0 0 88 30" fill="none" xmlns="http://www.w3.org/2000/svg">
<path d="M25.3461 12.1621C25.3476 11.4832 24.9332 10.8269 24.4241 10.3529C23.6918 9.67177 23.1345 9.14167 22.7516 8.76438C22.5407 8.55628 22.4358 8.2934 22.4378 7.97549C22.4442 6.68108 22.4422 5.3923 22.4314 4.10659C22.4273 3.62384 22.3078 3.13366 21.9781 2.7661C21.661 2.41261 21.2378 2.17072 20.7666 2.09547C20.0363 1.97901 19.3043 2.34504 18.8927 2.94707C18.4936 3.53015 18.6006 4.34822 18.5973 5.04546C18.5973 5.13275 18.5648 5.14683 18.5021 5.08642C18.0552 4.66408 17.5425 4.2146 17.127 3.82451C16.0377 2.80168 15.2554 2.07013 14.7827 1.63038C14.6519 1.50957 14.496 1.38568 14.3153 1.26077C13.5441 0.670259 12.4188 0.669235 11.6074 1.12485C11.4267 1.22724 11.1628 1.43636 10.8178 1.75325C10.0995 2.40954 9.38872 3.06814 8.68456 3.73851C7.48818 4.854 6.29487 5.96617 5.10387 7.07731C4.57172 7.57312 3.96918 8.1754 3.39582 8.70141C3.01469 9.05106 2.63407 9.40122 2.25447 9.75266C1.89202 10.0885 1.49451 10.4059 1.1679 10.7809C0.84001 11.1574 0.558449 11.6217 0.562544 12.1344C0.566896 12.7236 0.884804 13.3349 1.3998 13.6349C1.80321 13.845 2.25012 13.8645 2.63509 13.8202C2.81913 13.7987 3.38583 13.6251 3.51996 13.4355C3.60212 13.32 3.64769 13.3331 3.65639 13.4744C3.71475 14.4207 4.07182 15.3734 4.58452 16.1643C4.92905 16.7105 5.34294 17.2135 5.82416 17.6448C6.35375 18.1194 12.6495 22.1088 12.7803 22.1844C13.821 22.7846 15.2219 22.6328 15.6622 21.3589C15.9412 20.2638 15.4643 19.4911 14.6073 18.8952L9.87352 15.9142C8.19772 14.9001 6.98624 13.6943 7.23273 11.5495C7.3625 10.4233 7.8537 9.46418 8.70606 8.67095C9.46218 7.9673 11.2862 6.24927 11.4451 6.09748C11.8572 5.79902 12.3658 5.62318 12.9154 5.62318C13.5028 5.62318 14.0427 5.82462 14.4699 6.16198C14.55 6.23212 14.6288 6.3043 14.7089 6.3775C15.0097 6.64704 15.3105 6.91861 15.6102 7.19019L19.1238 10.3219C20.3993 11.4459 21.2778 12.2371 21.759 12.6963C22.1703 13.0881 22.5893 13.555 23.1481 13.7301C23.895 13.9643 24.721 13.6676 25.1178 12.9863C25.2757 12.7149 25.3445 12.4367 25.345 12.1623L25.3461 12.1621Z" fill="#FF5B2D"/>
<path d="M18.9421 13.6017C18.0967 12.9347 17.2343 12.3447 16.3907 11.6973C15.547 11.05 14.7451 10.4265 13.895 9.77428C13.2303 9.2644 12.5082 8.97234 11.6886 9.3481C10.9153 9.70261 10.5275 10.3382 10.5813 11.1928C10.6235 11.8637 11.0548 12.3324 11.5539 12.7481C11.9131 13.047 12.3049 13.3181 12.6784 13.603C13.6987 14.3814 14.7361 15.0889 15.7661 15.8755C16.9947 16.8136 18.0711 17.7289 18.3624 19.3338C18.5835 20.553 18.3672 21.7258 17.7183 22.7998C17.1772 23.6954 16.4946 24.4065 15.5124 24.8859C13.563 25.8379 11.5685 25.7242 9.68182 24.6082C8.95795 24.18 8.3636 23.5567 7.90772 22.8543C7.67403 22.4944 7.4754 22.112 7.31184 21.7155C7.16287 21.3546 7.09734 20.9402 6.86928 20.6195C6.55802 20.1821 6.08679 19.7999 5.52674 19.7917C4.95543 19.7833 4.4952 19.9415 4.08515 20.3653C3.70683 20.7564 3.57219 21.2592 3.57424 21.8082C3.57424 21.8632 3.5919 21.9751 3.60112 22.0335C3.65333 22.3634 3.72552 22.6746 3.83302 22.9892C4.01322 23.517 4.19291 24.0238 4.48317 24.5097C5.2805 25.8453 6.30487 26.8592 7.56396 27.7799C8.7478 28.4246 9.98539 29.0569 11.3328 29.2271C14.9757 29.6876 18.2341 28.3967 20.5521 25.5655C21.2783 24.6783 21.7001 23.6304 22.0237 22.5328C22.1389 22.142 22.1798 21.7365 22.2151 21.3121C22.2341 21.0836 22.2592 20.6712 22.2569 20.4483C22.2397 18.8413 21.8998 17.4028 21.1081 16.0357C20.5352 15.0464 19.8144 14.2892 18.9429 13.6017H18.9421Z" fill="#FF5B2D"/>
<g clip-path="url(#clip0_4935_19223)">
<path d="M36.0119 10.5844C36.0119 9.64421 36.697 9.19869 37.6159 9.23167C38.6183 9.24816 39.2366 9.84207 39.2867 10.6009H41.8598C41.7091 8.52234 40.072 7.31836 37.6827 7.31836C35.2934 7.31836 33.5725 8.57181 33.5725 10.6503C33.5558 14.8235 39.5706 13.3224 39.5706 15.8132C39.5706 16.6379 38.919 17.2153 37.8163 17.2153C36.7137 17.2153 36.1121 16.6049 36.0453 15.6813H33.5391C33.5725 17.8584 35.4437 19.1122 37.8664 19.1122C40.523 19.1122 41.9934 17.4792 41.9934 15.6648C41.9934 11.607 36.0119 12.8937 36.0119 10.5844Z" fill="#FF5B2D"/>
<path d="M48.7919 11.7563V9.85951H46.7203V7.59961H44.3644V9.85951H43.2617V11.7563H44.3644V16.1604C44.3644 18.2554 45.5508 18.9977 47.3219 18.9977H48.7919V17.0511H47.706C46.9708 17.0511 46.7203 16.7873 46.7203 16.1769V11.7563H48.7919Z" fill="#FF5B2D"/>
<path d="M57.1478 9.85933V11.1622C56.5963 10.4038 55.5772 9.71094 54.0901 9.71094C51.7345 9.71094 49.8633 11.5418 49.8633 14.3953C49.8633 17.2488 51.7345 19.1459 54.0734 19.1459C55.5438 19.1459 56.5963 18.4531 57.1478 17.6613V18.9975H59.5037V9.85933H57.1478ZM54.6917 17.1172C53.4387 17.1172 52.2523 16.1272 52.2523 14.3953C52.2523 12.6633 53.4387 11.7397 54.6917 11.7397C55.9446 11.7397 57.1478 12.6963 57.1478 14.4283C57.1478 16.1602 55.9784 17.1172 54.6917 17.1172Z" fill="#FF5B2D"/>
<path d="M68.1422 9.85938L65.7195 16.243L63.3302 9.85938H60.707L64.4161 18.7667L62.4113 23.3192H64.9008L70.6314 9.85938H68.1422Z" fill="#FF5B2D"/>
<path d="M74.2061 11.2771V9.85847H71.8672V18.9967H74.2061V14.4439C74.2061 12.679 75.0415 12.1513 76.4284 12.1513H77.0467V9.72656C75.76 9.72656 74.791 10.337 74.2061 11.2771Z" fill="#FF5B2D"/>
<path d="M82.7772 9.71094C80.104 9.71094 78.0156 11.5418 78.0156 14.4283C78.0156 17.3147 80.0372 19.1459 82.7104 19.1459C85.3837 19.1459 87.5392 17.2986 87.5392 14.4283C87.5392 11.558 85.4505 9.71094 82.7772 9.71094ZM82.7104 17.1337C81.4575 17.1337 80.3879 16.243 80.3879 14.4283C80.3879 12.6136 81.5076 11.7232 82.7438 11.7232C83.9801 11.7232 85.1331 12.5974 85.1331 14.4283C85.1331 16.2591 83.947 17.1337 82.7104 17.1337Z" fill="#FF5B2D"/>
</g>
<defs>
<clipPath id="clip0_4935_19223">
<rect width="54" height="18" fill="white" transform="translate(33.3477 6.05859)"/>
</clipPath>
</defs>
</svg>
